P3
100 50
255
0 0 0 0 0 0 0 0 0 0 0 0 0 0 0 0 0 0 0 0 0 0 0 0 0 0 0 0 0 0 0 0 0 0 0
0 0 0 0 0 0 0 0 0 0 0 0 0 0 0 0 0 0 0 0 0 0 0 0 0 0 0 0 0 0 0 0 0 0 0
0 0 0 0 0 0 0 0 0 0 0 0 0 0 0 0 0 0 0 0 0 0 0 0 0 0 0 0 0 0 0 0 0 0 0
0 0 0 0 0 0 0 0 0 0 0 0 0 0 0 0 0 0 0 0 0 0 0 0 0 0 0 0 0 0 0 0 0 0 0
0 0 0 0 0 0 0 0 0 0 0 0 0 0 0 0 0 0 0 0 0 0 0 0 0 0 0 0 0 0 0 0 0 0 0
0 0 0 0 0 0 0 0 0 0 0 0 0 0 0 0 0 0 0 0 0 0 0 0 0 0 0 0 0 0 0 0 0 0 0
0 0 0 0 0 0 0 0 0 0 0 0 0 0 0 0 0 0 0 0 0 0 0 0 0 0 0 0 0 0 0 0 0 0 0
0 0 0 0 0 0 0 0 0 0 0 0 0 0 0 0 0 0 0 0 0 0 0 0 0 0 0 0 0 0 0 0 0 0 0
0 0 0 0 0 0 0 0 0 0 0 0 0 0 0 0 0 0 0 0
0 0 0 0 0 0 0 0 0 0 0 0 0 0 0 0 0 0 0 0 0 0 0 0 0 0 0 0 0 0 0 0 0 0 0
0 0 0 0 0 0 0 0 0 0 0 0 0 0 0 0 0 0 0 0 0 0 0 0 0 0 0 0 0 0 0 0 0 0 0
0 0 0 0 0 0 0 0 0 0 0 0 0 0 0 0 0 0 0 0 0 0 0 0 0 0 0 0 0 0 0 0 0 0 0
0 0 0 0 0 0 0 0 0 0 0 0 0 0 0 0 0 0 0 0 0 0 0 0 0 0 0 0 0 0 0 0 0 0 0
0 0 0 0 0 0 0 0 0 0 0 0 0 0 0 0 0 0 0 0 0 0 0 0 0 0 0 0 0 0 0 0 0 0 0
0 0 0 0 0 0 0 0 0 0 0 0 0 0 0 0 0 0 0 0 0 0 0 0 0 0 0 0 0 0 0 0 0 0 0
0 0 0 0 0 0 0 0 0 0 0 0 0 0 0 0 0 0 0 0 0 0 0 0 0 0 0 0 0 0 0 0 0 0 0
0 0 0 0 0 0 0 0 0 0 0 0 0 0 0 0 0 0 0 0 0 0 0 0 0 0 0 0 0 0 0 0 0 0 0
0 0 0 0 0 0 0 0 0 0 0 0 0 0 0 0 0 0 0 0
0 0 0 0 0 0 0 0 0 0 0 0 0 0 0 0 0 0 0 0 0 0 0 0 0 0 0 0 0 0 0 0 0 0 0
0 0 0 0 0 0 0 0 0 0 0 0 0 0 0 0 0 0 0 0 0 0 0 0 0 0 0 0 0 0 0 0 0 0 0
0 0 0 0 0 0 0 0 0 0 0 0 0 0 0 0 0 0 0 0 0 0 0 0 0 0 0 0 0 0 0 0 0 0 0
0 0 0 0 0 0 0 0 0 0 0 0 0 0 0 0 0 0 0 0 0 0 0 0 0 0 0 0 0 0 0 0 0 0 0
0 0 0 0 0 0 0 0 0 0 0 0 0 0 0 0 0 0 0 0 0 0 0 0 0 0 0 0 0 0 0 0 0 0 0
0 0 0 0 0 0 0 0 0 0 0 0 0 0 0 0 0 0 0 0 0 0 0 0 0 0 0 0 0 0 0 0 0 0 0
0 0 0 0 0 0 0 0 0 0 0 0 0 0 0 0 0 0 0 0 0 0 0 0 0 0 0 0 0 0 0 0 0 0 0
0 0 0 0 0 0 0 0 0 0 0 0 0 0 0 0 0 0 0 0 0 0 0 0 0 0 0 0 0 0 0 0 0 0 0
0 0 0 0 0 0 0 0 0 0 0 0 0 0 0 0 0 0 0 0
0 0 0 0 0 0 0 0 0 0 0 0 0 0 0 0 0 0 0 0 0 0 0 0 0 0 0 0 0 0 0 0 0 0 0
0 0 0 0 0 0 0 0 0 0 0 0 0 0 0 0 0 0 0 0 0 0 0 0 0 0 0 0 0 0 0 0 0 0 0
0 0 0 0 0 0 0 0 0 0 0 0 0 0 0 0 0 0 0 0 0 0 0 0 0 0 0 0 0 0 0 0 0 0 0
0 0 0 0 0 0 0 0 0 0 0 0 0 0 0 0 0 0 0 0 0 0 0 0 0 0 0 0 0 0 0 0 0 0 0
0 0 0 0 0 0 0 0 0 0 0 0 0 0 0 0 0 0 0 0 0 0 0 0 0 0 0 0 0 0 0 0 0 0 0
0 0 0 0 0 0 0 0 0 0 0 0 0 0 0 0 0 0 0 0 0 0 0 0 0 0 0 0 0 0 0 0 0 0 0
0 0 0 0 0 0 0 0 0 0 0 0 0 0 0 0 0 0 0 0 0 0 0 0 0 0 0 0 0 0 0 0 0 0 0
0 0 0 0 0 0 0 0 0 0 0 0 0 0 0 0 0 0 0 0 0 0 0 0 0 0 0 0 0 0 0 0 0 0 0
0 0 0 0 0 0 0 0 0 0 0 0 0 0 0 0 0 0 0 0
0 0 0 0 0 0 0 0 0 0 0 0 0 0 0 0 0 0 0 0 0 0 0 0 0 0 0 0 0 0 0 0 0 0 0
0 0 0 0 0 0 0 0 0 0 0 0 0 0 0 0 0 0 0 0 0 0 0 0 0 0 0 0 0 0 0 0 0 0 0
0 0 0 0 0 0 0 0 0 0 0 0 0 0 0 0 0 0 0 0 0 0 0 0 0 0 0 0 0 0 0 0 0 0 0
0 0 0 0 0 0 0 0 0 0 0 0 0 0 0 0 0 0 0 0 0 0 0 0 0 0 0 0 0 0 0 0 0 0 0
0 0 0 0 0 0 0 0 0 0 0 0 0 0 0 0 0 0 0 0 0 0 0 0 0 0 0 0 0 0 0 0 0 0 0
0 0 0 0 0 0 0 0 0 0 0 0 0 0 0 0 0 0 0 0 0 0 0 0 0 0 0 0 0 0 0 0 0 0 0
0 0 0 0 0 0 0 0 0 0 0 0 0 0 0 0 0 0 0 0 0 0 0 0 0 0 0 0 0 0 0 0 0 0 0
0 0 0 0 0 0 0 0 0 0 0 0 0 0 0 0 0 0 0 0 0 0 0 0 0 0 0 0 0 0 0 0 0 0 0
0 0 0 0 0 0 0 0 0 0 0 0 0 0 0 0 0 0 0 0
0 0 0 0 0 0 0 0 0 0 0 0 0 0 0 0 0 0 0 0 0 0 0 0 0 0 0 0 0 0 0 0 0 0 0
0 0 0 0 0 0 0 0 0 0 0 0 0 0 0 0 0 0 0 0 0 0 0 0 0 0 0 0 0 0 0 0 0 0 0
0 0 0 0 0 0 0 0 0 0 0 0 0 0 0 0 0 0 0 0 0 0 0 0 0 0 0 0 0 0 0 0 0 0 0
0 0 0 0 0 0 0 0 0 0 0 0 0 0 0 0 0 0 0 0 0 0 0 0 0 0 0 0 0 0 0 0 0 0 0
0 0 0 0 0 0 0 0 0 0 0 0 0 0 0 0 0 0 0 0 0 0 0 0 0 0 0 0 0 0 0 0 0 0 0
0 0 0 0 0 0 0 0 0 0 0 0 0 0 0 0 0 0 0 0 0 0 0 0 0 0 0 0 0 0 0 0 0 0 0
0 0 0 0 0 0 0 0 0 0 0 0 0 0 0 0 0 0 0 0 0 0 0 0 0 0 0 0 0 0 0 0 0 0 0
0 0 0 0 0 0 0 0 0 0 0 0 0 0 0 0 0 0 0 0 0 0 0 0 0 0 0 0 0 0 0 0 0 0 0
0 0 0 0 0 0 0 0 0 0 0 0 0 0 0 0 0 0 0 0
0 0 0 0 0 0 0 0 0 0 0 0 0 0 0 0 0 0 0 0 0 0 0 0 0 0 0 0 0 0 0 0 0 0 0
0 0 0 0 0 0 0 0 0 0 0 0 0 0 0 0 0 0 0 0 0 0 0 0 0 0 0 0 0 0 0 0 0 0 0
0 0 0 0 0 0 0 0 0 0 0 0 0 0 0 0 0 0 0 0 0 0 0 0 0 0 0 0 0 0 0 0 0 0 0
0 0 0 0 0 0 0 0 0 0 0 0 0 0 0 0 0 0 0 0 0 0 0 0 0 0 0 0 0 0 0 0 0 0 0
0 0 0 0 0 0 0 0 0 0 0 0 0 0 0 0 0 0 0 0 0 0 0 0 0 0 0 0 0 0 0 0 0 0 0
0 0 0 0 0 0 0 0 0 0 0 0 0 0 0 0 0 0 0 0 0 0 0 0 0 0 0 0 0 0 0 0 0 0 0
0 0 0 0 0 0 0 0 0 0 0 0 0 0 0 0 0 0 0 0 0 0 0 0 0 0 0 0 0 0 0 0 0 0 0
0 0 0 0 0 0 0 0 0 0 0 0 0 0 0 0 0 0 0 0 0 0 0 0 0 0 0 0 0 0 0 0 0 0 0
0 0 0 0 0 0 0 0 0 0 0 0 0 0 0 0 0 0 0 0
0 0 0 0 0 0 0 0 0 0 0 0 0 0 0 0 0 0 0 0 0 0 0 0 0 0 0 0 0 0 0 0 0 0 0
0 0 0 0 0 0 0 0 0 0 0 0 0 0 0 0 0 0 0 0 0 0 0 0 0 0 0 0 0 0 0 0 0 0 0
0 0 0 0 0 0 0 0 0 0 0 0 0 0 0 0 0 0 0 0 0 0 0 0 0 0 0 0 0 0 0 0 0 0 0
0 0 0 0 0 0 0 0 0 0 0 0 0 0 0 0 0 0 0 0 0 0 0 0 0 0 0 0 0 0 0 0 0 0 0
0 0 0 0 0 0 0 0 0 0 0 0 0 0 0 0 0 0 0 0 0 0 0 0 0 0 0 0 0 0 0 0 0 0 0
0 0 0 0 0 0 0 0 0 0 0 0 0 0 0 0 0 0 0 0 0 0 0 0 0 0 0 0 0 0 0 0 0 0 0
0 0 0 0 0 0 0 0 0 0 0 0 0 0 0 0 0 0 0 0 0 0 0 0 0 0 0 0 0 0 0 0 0 0 0
0 0 0 0 0 0 0 0 0 0 0 0 0 0 0 0 0 0 0 0 0 0 0 0 0 0 0 0 0 0 0 0 0 0 0
0 0 0 0 0 0 0 0 0 0 0 0 0 0 0 0 0 0 0 0
0 0 0 0 0 0 0 0 0 0 0 0 0 0 0 0 0 0 0 0 0 0 0 0 0 0 0 0 0 0 0 0 0 0 0
0 0 0 0 0 0 0 0 0 0 0 0 0 0 0 0 0 0 0 0 0 0 0 0 0 0 0 0 0 0 0 0 0 0 0
0 0 0 0 0 0 0 0 0 0 0 0 0 0 0 0 0 0 0 0 0 0 0 0 0 0 0 0 0 0 0 0 0 0 0
0 0 0 0 0 0 0 0 0 0 0 0 0 0 0 140 5 6 137 5 6 0 0 0 0 0 0 0 0 0 0 0 0
0 0 0 0 0 0 0 0 0 0 0 0 0 0 0 0 0 0 0 0 0 0 0 0 0 0 0 0 0 0 0 0 0 0 0
0 0 0 0 0 0 0 0 0 0 0 0 0 0 0 0 0 0 0 0 0 0 0 0 0 0 0 0 0 0 0 0 0 0 0
0 0 0 0 0 0 0 0 0 0 0 0 0 0 0 0 0 0 0 0 0 0 0 0 0 0 0 0 0 0 0 0 0 0 0
0 0 0 0 0 0 0 0 0 0 0 0 0 0 0 0 0 0 0 0 0 0 0 0 0 0 0 0 0 0 0 0 0 0 0
0 0 0 0 0 0 0 0 0 0 0 0 0 0 0 0 0 0 0 0 0 0
0 0 0 0 0 0 0 0 0 0 0 0 0 0 0 0 0 0 0 0 0 0 0 0 0 0 0 0 0 0 0 0 0 0 0
0 0 0 0 0 0 0 0 0 0 0 0 0 0 0 0 0 0 0 0 0 0 0 0 0 0 0 0 0 0 0 0 0 0 0
0 0 0 0 0 0 0 0 0 0 0 0 0 0 0 0 0 0 0 0 0 0 0 0 0 0 0 0 0 0 0 0 0 0 0
0 0 0 0 0 0 0 0 0 167 6 7 163 6 7 158 6 7 0 0 0 0 0 0 0 0 0 0 0 0 119
4 5 107 4 5 91 3 4 0 0 0 0 0 0 0 0 0 0 0 0 0 0 0 0 0 0 0 0 0 0 0 0 0 0
0 0 0 0 0 0 0 0 0 0 0 0 0 0 0 0 0 0 0 0 0 0 0 0 0 0 0 0 0 0 0 0 0 0 0
0 0 0 0 0 0 0 0 0 0 0 0 0 0 0 0 0 0 0 0 0 0 0 0 0 0 0 0 0 0 0 0 0 0 0
0 0 0 0 0 0 0 0 0 0 0 0 0 0 0 0 0 0 0 0 0 0 0 0 0 0 0 0 0 0 0 0 0 0 0
0 0 0 0 0 0 0 0 0 0 0 0 0 0 0 0 0 0 0 0 0 0 0 0 0
0 0 0 0 0 0 0 0 0 0 0 0 0 0 0 0 0 0 0 0 0 0 0 0 0 0 0 0 0 0 0 0 0 0 0
0 0 0 0 0 0 0 0 0 0 0 0 0 0 0 0 0 0 0 0 0 0 0 0 0 0 0 0 0 0 0 0 0 0 0
0 0 0 0 0 0 0 0 0 0 0 0 0 0 0 0 0 0 0 0 0 0 0 0 0 0 0 0 0 0 0 0 178 6
8 0 0 0 0 0 0 0 0 0 174 6 8 169 6 7 164 6 7 0 0 0 0 0 0 0 0 0 0 0 0
127 5 6 117 4 5 106 4 5 0 0 0 0 0 0 0 0 0 0 0 0 0 0 0 0 0 0 0 0 0 0 0
0 0 0 0 0 0 0 0 0 0 0 0 0 0 0 0 0 0 0 0 0 0 0 0 0 0 0 0 0 0 0 0 0 0 0
0 0 0 0 0 0 0 0 0 0 0 0 0 0 0 0 0 0 0 0 0 0 0 0 0 0 0 0 0 0 0 0 0 0 0
0 0 0 0 0 0 0 0 0 0 0 0 0 0 0 0 0 0 0 0 0 0 0 0 0 0 0 0 0 0 0 0 0 0 0
0 0 0 0 0 0 0 0 0 0 0 0 0 0 0 0 0 0 0 0 0 0 0 0 0 0 0 0
0 0 0 0 0 0 0 0 0 0 0 0 0 0 0 0 0 0 0 0 0 0 0 0 0 0 0 0 0 0 0 0 0 0 0
0 0 0 0 0 0 0 0 0 0 0 0 0 0 0 0 0 0 0 0 0 0 0 0 0 0 0 0 0 0 0 0 0 0 0
0 0 0 0 0 0 0 0 0 0 0 0 0 0 0 0 0 0 0 0 0 0 0 0 0 0 0 0 0 188 7 8 0 0
0 0 0 0 0 0 0 0 0 0 177 6 8 172 6 8 166 6 7 0 0 0 0 0 0 0 0 0 0 0 0
130 5 6 121 4 5 111 4 5 0 0 0 0 0 0 0 0 0 0 0 0 0 0 0 0 0 0 0 0 0 0 0
0 0 0 0 0 0 0 0 0 0 0 0 0 0 0 0 0 0 0 0 0 0 0 0 0 0 0 0 0 0 0 0 0 0 0
0 0 0 0 0 0 0 0 0 0 0 0 0 0 0 0 0 0 0 0 0 0 0 0 0 0 0 0 0 0 0 0 0 0 0
0 0 0 0 0 0 0 0 0 0 0 0 0 0 0 0 0 0 0 0 0 0 0 0 0 0 0 0 0 0 0 0 0 0 0
0 0 0 0 0 0 0 0 0 0 0 0 0 0 0 0 0 0 0 0 0 0 0 0 0 0 0 0
0 0 0 0 0 0 0 0 0 0 0 0 0 0 0 0 0 0 0 0 0 0 0 0 0 0 0 0 0 0 0 0 0 0 0
0 0 0 0 0 0 0 0 0 0 0 0 0 0 0 0 0 0 0 0 0 0 0 0 0 0 0 0 0 0 0 0 0 0 0
0 0 0 0 0 0 0 0 0 0 0 0 0 0 0 0 0 0 0 0 0 0 0 0 0 0 193 7 8 194 7 9 0
0 0 0 0 0 0 0 0 183 7 8 178 6 8 173 6 8 167 6 7 0 0 0 0 0 0 0 0 0 0 0
0 132 5 6 124 4 5 114 4 5 0 0 0 0 0 0 0 0 0 0 0 0 42 2 2 0 0 0 0 0 0 0
0 0 0 0 0 0 0 0 0 0 0 0 0 0 0 0 0 0 0 0 0 0 0 0 0 0 0 0 0 0 0 0 0 0 0
0 0 0 0 0 0 0 0 0 0 0 0 0 0 0 0 0 0 0 0 0 0 0 0 0 0 0 0 0 0 0 0 0 0 0
0 0 0 0 0 0 0 0 0 0 0 0 0 0 0 0 0 0 0 0 0 0 0 0 0 0 0 0 0 0 0 0 0 0 0
0 0 0 0 0 0 0 0 0 0 0 0 0 0 0 0 0 0 0 0 0 0 0 0 0 0 0 0 0
0 0 0 0 0 0 0 0 0 0 0 0 0 0 0 0 0 0 0 0 0 0 0 0 0 0 0 0 0 0 0 0 0 0 0
0 0 0 0 0 0 0 0 0 0 0 0 0 0 0 0 0 0 0 0 0 0 0 0 0 0 0 0 0 0 0 0 0 0 0
0 0 0 0 0 0 0 0 0 0 0 0 0 0 0 0 0 0 0 0 0 0 0 196 7 9 197 7 9 196 7 9
0 0 0 0 0 0 0 0 0 183 7 8 178 6 8 173 6 8 167 6 7 0 0 0 0 0 0 0 0 0
140 5 6 133 5 6 124 4 5 115 4 5 0 0 0 0 0 0 0 0 0 0 0 0 54 2 2 31 1 1
0 0 0 0 0 0 0 0 0 0 0 0 0 0 0 0 0 0 0 0 0 0 0 0 0 0 0 0 0 0 0 0 0 0 0
0 0 0 0 0 0 0 0 0 0 0 0 0 0 0 0 0 0 0 0 0 0 0 0 0 0 0 0 0 0 0 0 0 0 0
0 0 0 0 0 0 0 0 0 0 0 0 0 0 0 0 0 0 0 0 0 0 0 0 0 0 0 0 0 0 0 0 0 0 0
0 0 0 0 0 0 0 0 0 0 0 0 0 0 0 0 0 0 0 0 0 0 0 0 0 0 0 0 0 0 0 0 0
0 0 0 0 0 0 0 0 0 0 0 0 0 0 0 0 0 0 0 0 0 0 0 0 0 0 0 0 0 0 0 0 0 0 0
0 0 0 0 0 0 0 0 0 0 0 0 0 0 0 0 0 0 0 0 0 0 0 0 0 0 0 0 0 0 0 0 0 0 0
0 0 0 0 0 0 0 0 0 0 0 0 0 0 0 0 0 0 0 0 0 0 0 199 7 9 199 7 9 197 7 9
0 0 0 0 0 0 0 0 0 182 7 8 177 6 8 172 6 8 166 6 7 0 0 0 0 0 0 0 0 0
140 5 6 132 5 6 124 4 5 115 4 5 0 0 0 0 0 0 0 0 0 0 0 0 59 2 3 42 1 2
25 1 1 0 0 0 0 0 0 0 0 0 0 0 0 0 0 0 0 0 0 0 0 0 0 0 0 0 0 0 0 0 0 0 0
0 0 0 0 0 0 0 0 0 0 0 0 0 0 0 0 0 0 0 0 0 0 0 0 0 0 0 0 0 0 0 0 0 0 0
0 0 0 0 0 0 0 0 0 0 0 0 0 0 0 0 0 0 0 0 0 0 0 0 0 0 0 0 0 0 0 0 0 0 0
0 0 0 0 0 0 0 0 0 0 0 0 0 0 0 0 0 0 0 0 0 0 0 0 0 0 0 0 0 0 0 0 0
0 0 0 0 0 0 0 0 0 0 0 0 0 0 0 0 0 0 0 0 0 0 0 0 0 0 0 0 0 0 0 0 0 0 0
0 0 0 0 0 0 0 0 0 0 0 0 0 0 0 0 0 0 0 0 0 0 0 0 0 0 0 0 0 0 0 0 0 0 0
0 0 0 0 0 0 0 0 0 0 0 0 0 0 0 0 0 0 0 0 0 0 0 200 7 9 199 7 9 196 7 9
0 0 0 0 0 0 0 0 0 181 6 8 176 6 8 171 6 7 165 6 7 0 0 0 0 0 0 0 0 0
139 5 6 131 5 6 123 4 5 115 4 5 0 0 0 0 0 0 0 0 0 0 0 0 61 2 3 46 2 2
27 1 1 0 0 0 0 0 0 0 0 0 0 0 0 0 0 0 0 0 0 0 0 0 0 0 0 0 0 0 0 0 0 0 0
0 0 0 0 0 0 0 0 0 0 0 0 0 0 0 0 0 0 0 0 0 0 0 0 0 0 0 0 0 0 0 0 0 0 0
0 0 0 0 0 0 0 0 0 0 0 0 0 0 0 0 0 0 0 0 0 0 0 0 0 0 0 0 0 0 0 0 0 0 0
0 0 0 0 0 0 0 0 0 0 0 0 0 0 0 0 0 0 0 0 0 0 0 0 0 0 0 0 0 0 0 0 0
20 7 0 20 7 0 27 25 25 27 25 25 20 7 0 27 25 25 20 7 0 20 7 0 27 25 25
21 7 0 27 25 25 27 25 25 21 7 0 27 25 25 27 25 25 21 7 0 27 25 25 21 7
0 21 7 0 27 25 25 21 7 0 27 25 25 27 25 25 21 7 0 27 25 25 27 25 25 27
25 25 21 7 0 0 0 0 0 0 0 200 7 9 199 7 9 197 7 9 0 0 0 0 0 0 0 0 0 0 0
0 179 6 8 174 6 8 169 6 7 163 6 7 0 0 0 0 0 0 0 0 0 137 5 6 129 5 6
122 4 5 113 4 5 0 0 0 0 0 0 0 0 0 0 0 0 62 2 3 48 2 2 31 1 1 0 0 0 28
25 25 28 25 25 21 7 0 28 25 25 28 25 25 21 7 0 28 25 25 21 7 0 21 7 0
27 25 25 21 7 0 27 25 25 27 25 25 21 7 0 27 25 25 21 7 0 21 7 0 27 25
25 27 25 25 21 7 0 21 7 0 27 25 25 21 7 0 27 25 25 27 25 25 21 7 0 27
25 25 27 25 25 21 7 0 27 25 25 21 7 0 21 7 0 27 25 25 21 7 0 27 25 25
27 25 25 20 7 0 27 25 25 20 7 0 20 7 0 27 25 25 20 7 0 20 7 0 20 7 0
32 11 0 32 11 0 43 38 38 32 11 0 32 11 0 43 39 39 32 11 0 32 11 0 43
39 39 43 39 39 32 11 0 43 39 39 43 39 39 33 11 0 43 39 39 44 39 39 33
11 0 44 39 39 33 11 0 44 39 39 33 11 0 33 11 0 44 39 39 33 11 0 33 11
0 44 40 40 44 40 40 33 11 0 0 0 0 0 0 0 199 7 9 198 7 9 196 7 9 0 0 0
0 0 0 0 0 0 0 0 0 177 6 8 171 6 8 166 6 7 0 0 0 0 0 0 0 0 0 0 0 0 135
5 6 127 5 6 119 4 5 111 4 5 0 0 0 0 0 0 0 0 0 0 0 0 61 2 3 48 2 2 33 1
1 0 0 0 0 0 0 44 40 40 44 40 40 33 11 0 44 40 40 44 40 40 33 11 0 33
11 0 44 39 39 33 11 0 33 11 0 44 39 39 33 11 0 33 11 0 43 39 39 33 11
0 33 11 0 43 39 39 32 11 0 32 11 0 43 39 39 32 11 0 32 11 0 43 39 39
32 11 0 32 11 0 43 38 38 43 38 38 32 11 0 42 38 38 42 38 38 32 11 0 42
38 38 42 38 38 32 11 0 42 38 38 31 10 0 42 38 38 31 10 0 31 10 0 42 37
37 31 10 0 31 10 0 41 37 37
43 14 0 58 52 52 43 14 0 43 14 0 58 52 52 44 15 0 44 15 0 58 52 52 44
15 0 58 53 53 59 53 53 44 15 0 44 15 0 44 15 0 59 53 53 44 15 0 59 53
53 59 53 53 44 15 0 59 53 53 59 53 53 44 15 0 59 53 53 59 53 53 45 15
0 60 54 54 45 15 0 185 7 8 0 0 0 0 0 0 197 7 9 195 7 9 193 7 8 0 0 0 0
0 0 6 6 6 18 18 18 176 8 10 169 6 7 163 6 7 0 0 0 0 0 0 0 0 0 0 0 0
132 5 6 125 4 5 117 4 5 109 4 5 0 0 0 0 0 0 0 0 0 0 0 0 60 2 3 47 2 2
33 1 1 0 0 0 0 0 0 44 15 0 44 15 0 59 53 53 44 15 0 58 53 53 58 53 53
44 15 0 58 52 52 58 52 52 44 15 0 58 52 52 43 14 0 43 14 0 58 52 52 43
14 0 43 14 0 57 52 52 43 14 0 57 51 51 57 51 51 43 14 0 57 51 51 57 51
51 42 14 0 56 51 51 56 51 51 56 50 50 42 14 0 56 50 50 56 50 50 42 14
0 55 50 50 41 14 0 41 14 0 55 49 49 41 14 0 41 14 0 55 49 49 41 14 0
41 14 0 54 49 49 40 13 0 54 48 48
72 65 65 72 65 65 54 18 0 54 18 0 72 65 65 72 65 65 54 18 0 54 18 0 73
65 65 73 66 66 55 18 0 55 18 0 73 66 66 73 66 66 55 18 0 55 18 0 73 66
66 73 66 66 55 18 0 55 18 0 55 18 0 74 66 66 74 66 66 55 18 0 55 18 0
74 66 66 74 66 66 187 7 8 0 0 0 0 0 0 194 7 9 193 7 8 190 7 8 0 0 0 1
1 1 42 42 42 60 60 60 175 10 12 165 6 7 160 6 7 0 0 0 0 0 0 0 0 0 0 0
0 129 5 6 122 4 5 114 4 5 106 4 5 0 0 0 0 0 0 0 0 0 0 0 0 58 2 3 46 2
2 32 1 1 0 0 0 0 0 0 54 18 0 72 64 64 72 64 64 54 18 0 53 18 0 71 64
64 71 64 64 53 18 0 53 18 0 71 63 63 70 63 63 53 18 0 53 18 0 70 63 63
70 63 63 52 17 0 52 17 0 69 62 62 69 62 62 69 62 62 69 62 62 51 17 0
51 17 0 68 61 61 68 61 61 68 61 61 51 17 0 51 17 0 67 61 61 67 60 60
50 17 0 50 17 0 67 60 60 66 60 60 50 17 0 49 16 0 66 59 59 66 59 59 49
16 0 49 16 0 65 59 59 65 58 58 49 16 0
85 77 77 85 77 77 64 21 0 64 21 0 64 21 0 86 77 77 86 77 77 86 77 77
64 21 0 64 21 0 86 77 77 86 77 77 86 77 77 65 22 0 65 22 0 65 22 0 86
78 78 86 78 78 86 78 78 65 22 0 65 22 0 86 78 78 86 78 78 86 78 78 65
22 0 65 22 0 65 22 0 186 7 8 0 0 0 0 0 0 191 7 8 189 7 8 187 7 8 0 0 0
1 1 1 16 16 16 12 12 12 167 6 8 162 6 7 157 6 7 0 0 0 0 0 0 0 0 0 0 0
0 125 4 6 118 4 5 111 4 5 103 4 5 0 0 0 0 0 0 0 0 0 0 0 0 55 2 2 43 2
2 30 1 1 0 0 0 0 0 0 0 0 0 62 21 0 62 21 0 83 74 74 82 74 74 62 21 0
61 20 0 61 20 0 82 73 73 81 73 73 81 73 73 61 20 0 61 20 0 60 20 0 80
72 72 80 72 72 60 20 0 60 20 0 60 20 0 79 71 71 79 71 71 79 71 71 59
20 0 59 20 0 78 70 70 78 70 70 78 70 70 58 19 0 58 19 0 58 19 0 77 69
69 77 69 69 76 69 69 57 19 0 57 19 0 76 68 68 76 68 68 75 68 68 56 19
0 56 19 0 56 19 0 74 67 67 74 67 67
97 87 87 97 87 87 97 87 87 97 88 88 73 24 0 73 24 0 73 24 0 98 88 88
98 88 88 98 88 88 98 88 88 73 24 0 73 24 0 73 24 0 98 88 88 98 88 88
98 88 88 73 24 0 73 24 0 73 24 0 73 24 0 98 88 88 98 88 88 98 88 88 73
24 0 73 24 0 169 6 7 0 0 0 0 0 0 0 0 0 187 7 8 185 7 8 183 7 8 0 0 0 0
0 0 0 0 0 0 0 0 163 6 7 158 6 7 153 5 7 0 0 0 0 0 0 0 0 0 0 0 0 122 4
5 115 4 5 107 4 5 99 4 4 0 0 0 0 0 0 0 0 0 0 0 0 52 2 2 40 1 2 27 1 1
0 0 0 0 0 0 0 0 0 69 23 0 69 23 0 69 23 0 69 23 0 92 83 83 91 82 82 91
82 82 68 23 0 68 23 0 68 23 0 90 81 81 90 81 81 90 81 81 90 81 81 67
22 0 67 22 0 67 22 0 89 80 80 88 79 79 88 79 79 88 79 79 66 22 0 65 22
0 65 22 0 87 78 78 87 78 78 86 78 78 65 22 0 64 21 0 64 21 0 64 21 0
85 77 77 85 76 76 85 76 76 63 21 0 63 21 0 63 21 0 63 21 0 83 75 75 83
75 75 83 74 74 62 21 0
81 27 0 81 27 0 81 27 0 108 97 97 108 97 97 108 97 97 108 97 97 81 27
0 81 27 0 81 27 0 81 27 0 81 27 0 81 27 0 81 27 0 81 27 0 108 97 97
108 97 97 108 97 97 108 97 97 81 27 0 81 27 0 81 27 0 80 27 0 107 96
96 107 96 96 107 96 96 169 6 7 0 0 0 0 0 0 0 0 0 183 7 8 181 6 8 179 6
8 0 0 0 0 0 0 0 0 0 0 0 0 159 6 7 154 5 7 149 5 7 0 0 0 0 0 0 0 0 0 0
0 0 118 4 5 111 4 5 103 4 5 95 3 4 0 0 0 0 0 0 0 0 0 0 0 0 48 2 2 37 1
2 25 1 1 0 0 0 0 0 0 0 0 0 101 91 91 75 25 0 75 25 0 75 25 0 75 25 0
100 90 90 99 89 89 99 89 89 99 89 89 99 89 89 74 25 0 74 25 0 73 24 0
73 24 0 97 88 88 97 87 87 97 87 87 96 87 87 72 24 0 72 24 0 72 24 0 71
24 0 95 86 86 95 85 85 94 85 85 94 85 85 70 23 0 70 23 0 70 23 0 70 23
0 93 84 84 93 83 83 92 83 83 92 83 83 69 23 0 69 23 0 68 23 0 68 23 0
91 81 81 90 81 81 90 81 81 90 81 81
117 105 105 117 105 105 117 105 105 117 105 105 117 105 105 117 105
105 117 105 105 117 105 105 117 105 105 88 29 0 88 29 0 88 29 0 87 29
0 117 105 105 117 105 105 116 105 105 116 105 105 116 105 105 87 29 0
87 29 0 87 29 0 87 29 0 87 29 0 116 104 104 115 104 104 115 104 104
166 6 7 0 0 0 0 0 0 0 0 0 179 6 8 177 6 8 174 6 8 0 0 0 0 0 0 0 0 0 0
0 0 154 6 7 149 5 7 144 5 6 0 0 0 0 0 0 0 0 0 0 0 0 113 4 5 106 4 5 99
4 4 91 3 4 0 0 0 0 0 0 0 0 0 0 0 0 44 2 2 33 1 1 25 1 1 0 0 0 0 0 0 0
0 0 81 27 0 81 27 0 81 27 0 107 97 97 107 96 96 107 96 96 106 96 96 80
27 0 79 26 0 79 26 0 79 26 0 79 26 0 105 94 94 104 94 94 104 94 94 104
93 93 104 93 93 77 26 0 77 26 0 77 26 0 77 26 0 77 26 0 102 92 92 101
91 91 101 91 91 101 91 91 75 25 0 75 25 0 75 25 0 75 25 0 75 25 0 99
89 89 99 89 89 98 89 89 98 88 88 98 88 88 73 24 0 73 24 0 73 24 0 73
24 0 96 87 87 96 86 86
94 31 0 94 31 0 94 31 0 125 112 112 125 112 112 125 112 112 125 112
112 125 112 112 93 31 0 93 31 0 93 31 0 93 31 0 93 31 0 124 112 112
124 112 112 124 111 111 124 111 111 124 111 111 123 111 111 92 31 0 92
31 0 92 31 0 92 31 0 92 31 0 123 110 110 122 110 110 161 6 7 0 0 0 0 0
0 0 0 0 174 6 8 172 6 8 169 6 7 0 0 0 0 0 0 0 0 0 0 0 0 150 5 7 145 5
6 139 5 6 0 0 0 0 0 0 0 0 0 0 0 0 109 4 5 102 4 4 94 3 4 86 3 4 0 0 0
0 0 0 0 0 0 0 0 0 40 1 2 28 1 1 25 1 1 0 0 0 0 0 0 0 0 0 114 103 103
114 103 103 114 102 102 113 102 102 85 28 0 85 28 0 84 28 0 84 28 0 84
28 0 112 100 100 83 28 0 83 28 0 83 28 0 83 28 0 83 28 0 110 99 99 109
99 99 109 98 98 109 98 98 109 98 98 81 27 0 81 27 0 81 27 0 80 27 0 80
27 0 107 96 96 106 96 96 106 95 95 106 95 95 105 95 95 105 95 95 79 26
0 78 26 0 78 26 0 78 26 0 78 26 0 103 93 93 103 93 93 103 92 92 102 92
92 102 92 92 102 92 92
99 33 0 99 33 0 99 33 0 132 119 119 132 119 119 132 118 118 131 118
118 131 118 118 131 118 118 98 33 0 98 33 0 98 33 0 98 33 0 98 33 0 98
33 0 130 117 117 130 117 117 130 117 117 130 117 117 130 117 117 129
116 116 97 32 0 97 32 0 97 32 0 96 32 0 96 32 0 154 5 7 0 0 0 0 0 0 0
0 0 168 6 7 166 6 7 164 6 7 0 0 0 0 0 0 0 0 0 0 0 0 145 5 6 140 5 6
134 5 6 0 0 0 0 0 0 0 0 0 0 0 0 104 4 5 97 3 4 89 3 4 82 3 4 0 0 0 0 0
0 0 0 0 0 0 0 35 1 2 25 1 1 25 1 1 0 0 0 0 0 0 0 0 0 90 30 0 89 30 0
89 30 0 89 30 0 89 30 0 118 106 106 118 106 106 117 106 106 117 105
105 117 105 105 117 105 105 87 29 0 87 29 0 87 29 0 86 29 0 86 29 0 86
29 0 114 103 103 114 103 103 114 102 102 113 102 102 113 102 102 113
101 101 84 28 0 84 28 0 84 28 0 84 28 0 83 28 0 83 28 0 111 99 99 110
99 99 110 99 99 110 99 99 109 98 98 109 98 98 81 27 0 81 27 0 81 27 0
81 27 0 81 27 0 80 27 0 107 96 96
138 124 124 138 124 124 138 124 124 138 124 124 103 34 0 103 34 0 103
34 0 103 34 0 103 34 0 103 34 0 102 34 0 136 123 123 136 123 123 136
122 122 136 122 122 136 122 122 136 122 122 101 34 0 101 34 0 101 34 0
101 34 0 101 34 0 101 34 0 101 34 0 134 120 120 134 120 120 144 5 6 0
0 0 0 0 0 0 0 0 162 6 7 161 6 7 158 6 7 0 0 0 0 0 0 0 0 0 0 0 0 139 5
6 134 5 6 129 5 6 0 0 0 0 0 0 0 0 0 0 0 0 99 4 4 92 3 4 84 3 4 76 3 3
0 0 0 0 0 0 0 0 0 0 0 0 29 1 1 25 1 1 25 1 1 0 0 0 0 0 0 0 0 0 93 31 0
93 31 0 93 31 0 93 31 0 92 31 0 92 31 0 122 110 110 122 110 110 122
110 110 121 109 109 121 109 109 121 109 109 120 108 108 90 30 0 90 30
0 90 30 0 89 30 0 76 151 15 78 155 16 76 152 15 72 145 14 67 134 13 58
117 12 42 84 8 117 105 105 116 105 105 116 104 104 87 29 0 87 29 0 86
29 0 86 29 0 86 29 0 86 29 0 114 102 102 113 102 102 113 102 102 113
102 102 112 101 101 112 101 101 112 101 101 84 28 0 83 28 0
143 129 129 143 129 129 143 129 129 143 128 128 142 128 128 142 128
128 142 128 128 106 35 0 106 35 0 106 35 0 106 35 0 106 35 0 106 35 0
106 35 0 141 127 127 140 126 126 140 126 126 140 126 126 140 126 126
139 126 126 139 125 125 104 35 0 104 35 0 104 35 0 104 35 0 104 35 0
103 34 0 0 0 0 0 0 0 0 0 0 156 6 7 154 6 7 152 5 7 0 0 0 0 0 0 0 0 0 0
0 0 134 5 6 129 5 6 124 4 5 0 0 0 0 0 0 0 0 0 0 0 0 93 3 4 86 3 4 78 3
3 71 3 3 0 0 0 0 0 0 0 0 0 0 0 0 25 1 1 25 1 1 25 1 1 0 0 0 0 0 0 0 0
0 128 116 116 128 115 115 128 115 115 127 115 115 127 114 114 127 114
114 126 114 114 126 114 114 94 31 0 94 31 0 94 31 0 94 31 0 93 31 0 93
31 0 93 31 0 85 171 17 89 179 18 90 180 18 89 178 18 86 173 17 83 165
17 78 155 16 71 143 14 64 127 13 53 107 11 37 73 7 90 30 0 90 30 0 90
30 0 89 30 0 119 107 107 118 107 107 118 106 106 118 106 106 117 106
106 117 105 105 117 105 105 87 29 0 87 29 0 87 29 0 87 29 0 86 29 0
111 37 0 110 37 0 110 37 0 147 132 132 147 132 132 147 132 132 146 132
132 146 132 132 146 131 131 146 131 131 145 131 131 109 36 0 109 36 0
109 36 0 108 36 0 108 36 0 108 36 0 108 36 0 108 36 0 143 129 129 143
129 129 143 129 129 143 128 128 142 128 128 142 128 128 142 128 128
142 127 127 141 5 6 0 0 0 0 0 0 149 5 7 148 5 6 146 5 6 0 0 0 0 0 0 0
0 0 0 0 0 127 5 6 123 4 5 118 4 5 0 0 0 0 0 0 0 0 0 0 0 0 87 3 4 80 3
4 72 3 3 64 2 3 0 0 0 0 0 0 0 0 0 0 0 0 25 1 1 25 1 1 25 1 1 0 0 0 0 0
0 132 119 119 132 119 119 99 33 0 99 33 0 98 33 0 98 33 0 98 33 0 98
33 0 97 32 0 97 32 0 129 116 116 129 116 116 128 116 116 128 115 115
75 149 15 91 183 18 95 191 19 97 193 19 96 192 19 94 188 19 91 182 18
87 175 17 83 165 17 77 154 15 70 141 14 62 125 12 52 104 10 38 76 8
123 111 111 123 111 111 123 110 110 122 110 110 122 110 110 122 109
109 91 30 0 91 30 0 91 30 0 90 30 0 90 30 0 90 30 0 90 30 0 89 30 0
119 107 107
113 38 0 113 38 0 113 38 0 113 38 0 113 38 0 113 38 0 112 37 0 150 135
135 149 135 135 149 134 134 149 134 134 149 134 134 149 134 134 148
133 133 148 133 133 148 133 133 111 37 0 110 37 0 110 37 0 110 37 0
110 37 0 110 37 0 110 37 0 109 36 0 109 36 0 145 131 131 145 130 130
128 5 6 0 0 0 0 0 0 141 5 6 140 5 6 139 5 6 0 0 0 0 0 0 0 0 0 0 0 0
121 4 5 116 4 5 111 4 5 0 0 0 0 0 0 0 0 0 0 0 0 81 3 4 74 3 3 66 2 3
58 2 3 0 0 0 0 0 0 0 0 0 0 0 0 25 1 1 25 1 1 25 1 1 0 0 0 0 0 0 102 34
0 101 34 0 101 34 0 135 121 121 134 121 121 134 120 120 134 120 120
133 120 120 133 120 120 133 119 119 132 119 119 99 33 0 99 33 0 98 33
0 93 186 19 98 196 20 100 200 20 100 200 20 99 197 20 97 193 19 94 187
19 90 180 18 85 171 17 80 160 16 74 148 15 67 133 13 58 116 12 47 94 9
32 64 6 95 32 0 94 31 0 94 31 0 94 31 0 94 31 0 93 31 0 93 31 0 93 31
0 124 111 111 123 111 111 123 111 111 123 110 110 122 110 110 122 110
110
154 139 139 154 139 139 154 139 139 154 138 138 115 38 0 153 138 138
153 138 138 153 138 138 153 137 137 152 137 137 152 137 137 152 137
137 152 136 136 113 38 0 113 38 0 113 38 0 113 38 0 113 38 0 113 38 0
112 37 0 112 37 0 112 37 0 112 37 0 149 134 134 148 134 134 148 133
133 148 133 133 148 133 133 0 0 0 0 0 0 133 5 6 133 5 6 131 5 6 0 0 0
0 0 0 0 0 0 0 0 0 114 4 5 109 4 5 104 4 5 0 0 0 0 0 0 0 0 0 0 0 0 74 3
3 67 2 3 59 2 3 51 2 2 0 0 0 0 0 0 0 0 0 0 0 0 25 1 1 25 1 1 25 1 1 0
0 0 0 0 0 104 35 0 103 34 0 103 34 0 137 124 124 137 123 123 137 123
123 136 123 123 136 122 122 136 122 122 135 122 122 135 122 122 135
121 121 101 34 0 90 181 18 98 195 20 101 201 20 102 203 20 101 202 20
100 200 20 98 195 20 95 189 19 91 182 18 86 173 17 81 163 16 75 151 15
69 137 14 61 121 12 51 103 10 39 79 8 22 43 4 129 116 116 96 32 0 96
32 0 96 32 0 96 32 0 95 32 0 95 32 0 95 32 0 95 32 0 94 31 0 94 31 0
125 113 113 125 112 112
157 141 141 118 39 0 117 39 0 117 39 0 117 39 0 117 39 0 117 39 0 117
39 0 116 39 0 116 39 0 116 39 0 154 139 139 154 139 139 154 139 139
154 138 138 153 138 138 153 138 138 153 138 138 153 137 137 152 137
137 152 137 137 114 38 0 114 38 0 113 38 0 113 38 0 113 38 0 113 38 0
113 38 0 0 0 0 0 0 0 124 4 5 124 4 5 123 4 5 0 0 0 0 0 0 0 0 0 0 0 0
107 4 5 102 4 4 97 3 4 92 3 4 0 0 0 0 0 0 0 0 0 67 2 3 59 2 3 52 2 2
44 2 2 0 0 0 0 0 0 0 0 0 0 0 0 25 1 1 25 1 1 25 1 1 0 0 0 141 127 127
141 127 127 140 126 126 140 126 126 140 126 126 105 35 0 104 35 0 104
35 0 19 6 0 19 6 0 19 6 0 19 6 0 103 34 0 81 162 16 94 189 19 99 199
20 101 203 20 102 204 20 101 203 20 100 199 20 97 195 19 94 189 19 91
181 18 86 173 17 81 163 16 76 151 15 69 138 14 62 123 12 53 106 11 43
85 9 29 58 6 98 33 0 98 33 0 98 33 0 98 33 0 130 117 117 130 117 117
129 116 116 129 116 116 129 116 116 128 116 116 128 115 115 128 115
115 128 115 115
159 144 144 159 143 143 159 143 143 159 143 143 158 143 143 158 142
142 158 142 142 158 142 142 118 39 0 118 39 0 118 39 0 118 39 0 117 39
0 117 39 0 117 39 0 117 39 0 117 39 0 116 39 0 116 39 0 155 139 139
154 139 139 154 139 139 154 138 138 153 138 138 153 138 138 153 138
138 153 137 137 152 137 137 152 137 137 0 0 0 0 0 0 114 4 5 114 4 5
112 4 5 0 0 0 0 0 0 0 0 0 99 4 4 94 3 4 89 3 4 84 3 4 0 0 0 0 0 0 0 0
0 59 2 3 51 2 2 44 2 2 35 1 2 0 0 0 0 0 0 0 0 0 0 0 0 25 1 1 25 1 1 25
1 1 0 0 0 19 6 0 19 6 0 19 6 0 19 6 0 19 6 0 26 23 23 26 23 23 26 23
23 26 23 23 26 23 23 26 23 23 26 23 23 26 23 23 86 173 17 95 190 19 99
198 20 101 202 20 101 202 20 100 201 20 103 202 24 97 194 20 93 187 19
90 179 18 85 171 17 80 161 16 75 150 15 69 137 14 61 123 12 53 106 11
43 87 9 31 63 6 13 27 3 100 33 0 100 33 0 100 33 0 99 33 0 99 33 0 132
119 119 132 118 118 131 118 118 131 118 118 131 118 118 130 117 117
130 117 117
162 145 145 161 145 145 161 145 145 161 145 145 161 144 144 120 40 0
120 40 0 120 40 0 120 40 0 119 40 0 119 40 0 119 40 0 119 40 0 119 40
0 118 39 0 118 39 0 157 142 142 157 141 141 162 130 16 150 120 15 133
106 13 110 88 11 80 64 8 155 140 140 155 140 140 155 139 139 154 139
139 154 139 139 115 38 0 0 0 0 0 0 0 103 4 5 103 4 5 102 4 4 0 0 0 0 0
0 0 0 0 90 3 4 86 3 4 81 3 4 76 3 3 0 0 0 0 0 0 0 0 0 50 2 2 43 2 2 35
1 2 26 1 1 0 0 0 0 0 0 0 0 0 0 0 0 25 1 1 25 1 1 25 1 1 19 6 0 19 6 0
19 6 0 19 6 0 19 6 0 19 6 0 19 6 0 26 23 23 26 23 23 26 23 23 26 23 23
26 23 23 26 23 23 26 23 23 87 174 17 94 189 19 98 196 20 99 198 20 99
199 20 99 197 20 146 243 69 100 194 24 91 183 18 88 176 18 84 167 17
79 158 16 73 147 15 67 134 13 60 121 12 52 105 10 43 86 9 32 63 6 16
32 3 135 122 122 135 122 122 135 121 121 135 121 121 134 121 121 134
121 121 134 120 120 133 120 120 100 33 0 100 33 0 99 33 0 99 33 0
122 41 0 122 41 0 163 146 146 163 146 146 162 146 146 162 146 146 162
146 146 161 145 145 161 145 145 161 145 145 161 145 145 160 144 144
160 144 144 160 144 144 120 40 0 119 40 0 191 152 19 185 148 19 174
139 17 158 127 16 140 112 14 119 96 12 95 76 10 66 53 7 26 20 3 156
141 141 117 39 0 117 39 0 117 39 0 116 39 0 0 0 0 89 3 4 91 3 4 91 3 4
0 0 0 0 0 0 0 0 0 81 3 4 77 3 3 72 3 3 67 2 3 0 0 0 0 0 0 0 0 0 41 1 2
34 1 1 25 1 1 25 1 1 0 0 0 0 0 0 0 0 0 0 0 0 25 1 1 25 1 1 19 6 0 19 6
0 19 6 0 19 6 0 19 6 0 19 6 0 19 6 0 19 6 0 19 6 0 26 23 23 26 23 23
26 23 23 26 23 23 26 23 23 26 23 23 85 171 17 92 184 18 95 191 19 97
193 19 97 193 19 96 192 19 94 188 19 92 184 18 89 178 18 85 171 17 81
162 16 76 153 15 71 142 14 65 130 13 58 116 12 50 101 10 41 83 8 30 61
6 16 32 3 137 124 124 137 123 123 137 123 123 137 123 123 136 123 123
136 122 122 136 122 122 135 122 122 135 122 122 135 121 121 135 121
121 101 34 0
165 148 148 165 148 148 164 148 148 164 148 148 164 147 147 164 147
147 163 147 147 163 147 147 163 146 146 162 146 146 162 146 146 162
146 146 121 40 0 121 40 0 121 40 0 201 161 20 197 158 20 187 149 19
173 139 17 157 126 16 139 111 14 119 95 12 96 77 10 70 56 7 39 31 4 26
20 3 158 142 142 157 142 142 157 141 141 157 141 141 157 141 141 70 3
3 77 3 3 79 3 3 0 0 0 0 0 0 0 0 0 70 3 3 66 2 3 62 2 3 56 2 2 0 0 0 0
0 0 0 0 0 31 1 1 25 1 1 25 1 1 25 1 1 0 0 0 0 0 0 0 0 0 0 0 0 25 1 1
26 23 23 26 23 23 26 23 23 26 23 23 26 23 23 26 23 23 26 23 23 26 23
23 26 23 23 26 23 23 19 6 0 19 6 0 19 6 0 19 6 0 19 6 0 19 6 0 82 164
16 89 177 18 92 184 18 93 186 19 93 187 19 93 185 19 91 182 18 89 177
18 86 171 17 82 164 16 78 156 16 73 147 15 68 136 14 62 124 12 55 111
11 48 95 10 39 77 8 28 56 6 14 28 3 13 26 3 104 35 0 104 35 0 104 35 0
104 35 0 103 34 0 103 34 0 103 34 0 103 34 0 103 34 0 102 34 0 102 34
0
166 150 150 166 149 149 166 149 149 165 149 149 165 149 149 165 148
148 165 148 148 164 148 148 164 148 148 164 147 147 123 41 0 122 41 0
122 41 0 122 41 0 202 162 20 202 162 20 194 156 19 183 146 18 169 135
17 152 122 15 134 107 13 114 91 11 92 74 9 67 54 7 38 30 4 26 20 3 159
143 143 159 143 143 158 143 143 158 142 142 158 142 142 158 142 142 55
2 2 62 2 3 0 0 0 0 0 0 0 0 0 58 2 3 55 2 2 50 2 2 45 2 2 0 0 0 0 0 0 0
0 0 0 0 0 25 1 1 25 1 1 25 1 1 0 0 0 0 0 0 0 0 0 0 0 0 26 23 23 26 23
23 26 23 23 26 23 23 26 23 23 26 23 23 26 23 23 26 23 23 26 23 23 26
23 23 26 23 23 26 23 23 19 6 0 19 6 0 19 6 0 19 6 0 19 6 0 77 153 15
84 168 17 87 175 17 89 178 18 89 178 18 88 177 18 87 174 17 85 169 17
82 164 16 78 157 16 74 149 15 70 139 14 64 129 13 58 117 12 52 103 10
44 88 9 35 70 7 24 49 5 13 26 3 13 26 3 141 127 127 105 35 0 105 35 0
105 35 0 105 35 0 104 35 0 104 35 0 104 35 0 104 35 0 104 35 0 103 34
0
126 42 0 125 42 0 125 42 0 125 42 0 125 42 0 125 42 0 124 41 0 124 41
0 165 149 149 165 148 148 165 148 148 164 148 148 164 148 148 164 148
148 202 161 20 197 158 20 188 151 19 198 163 40 161 129 16 145 116 14
127 101 13 107 86 11 85 68 8 60 48 6 33 26 3 26 20 3 26 20 3 120 40 0
160 144 144 159 143 143 159 143 143 159 143 143 159 143 143 158 142
142 44 2 2 0 0 0 0 0 0 0 0 0 41 1 2 37 1 2 32 1 1 0 0 0 0 0 0 0 0 0 0
0 0 25 1 1 25 1 1 25 1 1 0 0 0 0 0 0 0 0 0 26 23 23 26 23 23 26 23 23
26 23 23 26 23 23 26 23 23 26 23 23 26 23 23 26 23 23 26 23 23 26 23
23 26 23 23 26 23 23 19 6 0 19 6 0 19 6 0 19 6 0 19 6 0 69 139 14 78
156 16 82 164 16 84 168 17 84 169 17 84 167 17 82 164 16 80 160 16 77
154 15 74 148 15 70 140 14 65 130 13 60 120 12 54 108 11 47 95 9 40 79
8 31 61 6 20 39 4 13 26 3 142 128 128 142 128 128 142 128 128 142 127
127 106 35 0 106 35 0 106 35 0 105 35 0 105 35 0 105 35 0 105 35 0 105
35 0
126 42 0 126 42 0 126 42 0 126 42 0 126 42 0 125 42 0 167 150 150 167
150 150 166 150 150 166 149 149 166 149 149 166 149 149 165 149 149
190 152 19 195 156 20 189 151 19 179 144 18 167 133 17 152 121 15 135
108 14 117 94 12 97 78 10 76 60 8 51 41 5 26 20 3 26 20 3 26 20 3 121
40 0 121 40 0 120 40 0 120 40 0 120 40 0 120 40 0 120 40 0 119 40 0 0
0 0 0 0 0 0 0 0 25 1 1 25 1 1 25 1 1 0 0 0 0 0 0 0 0 0 0 0 0 25 1 1 25
1 1 25 1 1 0 0 0 26 23 23 19 6 0 19 6 0 19 6 0 19 6 0 19 6 0 19 6 0 19
6 0 19 6 0 19 6 0 19 6 0 19 6 0 19 6 0 19 6 0 19 6 0 19 6 0 26 23 23
26 23 23 26 23 23 149 135 135 59 118 12 70 141 14 75 151 15 78 155 16
78 157 16 78 156 16 77 154 15 75 149 15 72 144 14 69 137 14 65 129 13
60 120 12 55 110 11 49 98 10 42 84 8 34 68 7 25 50 5 14 27 3 13 26 3
108 36 0 108 36 0 108 36 0 107 36 0 107 36 0 107 36 0 142 128 128 142
128 128 142 128 128 141 127 127 141 127 127 141 127 127
127 42 0 127 42 0 127 42 0 126 42 0 168 151 151 168 151 151 168 151
151 168 151 151 167 151 151 167 150 150 167 150 150 166 150 150 166
150 150 183 146 18 185 148 18 178 143 18 168 134 17 155 124 16 141 112
14 124 99 12 106 85 11 86 69 9 64 51 6 40 32 4 26 20 3 26 20 3 26 20 3
122 41 0 121 40 0 121 40 0 121 40 0 121 40 0 121 40 0 120 40 0 120 40
0 160 144 144 160 144 144 26 23 23 0 0 0 25 1 1 25 1 1 25 1 1 0 0 0 0
0 0 0 0 0 25 1 1 43 24 24 26 23 23 26 23 23 26 23 23 19 6 0 19 6 0 19
6 0 19 6 0 19 6 0 19 6 0 19 6 0 19 6 0 19 6 0 19 6 0 19 6 0 19 6 0 19
6 0 19 6 0 114 38 0 152 136 136 151 136 136 151 136 136 151 136 136
150 135 135 61 121 12 67 135 13 70 141 14 72 143 14 72 143 14 70 141
14 69 137 14 66 132 13 63 125 13 59 118 12 54 108 11 49 98 10 43 86 9
36 72 7 28 56 6 18 36 4 13 26 3 13 26 3 19 6 0 19 6 0 19 6 0 19 6 0 19
6 0 19 6 0 19 6 0 108 36 0 143 129 129 143 129 129 143 128 128 142 128
128
128 43 0 127 42 0 170 153 153 169 152 152 169 152 152 169 152 152 169
152 152 168 152 152 168 151 151 168 151 151 168 151 151 167 151 151
167 150 150 169 135 17 172 137 17 165 132 17 155 124 16 142 114 14 128
102 13 111 89 11 93 74 9 73 58 7 51 41 5 26 21 3 26 20 3 26 20 3 26 20
3 122 41 0 122 41 0 122 41 0 122 41 0 121 40 0 121 40 0 121 40 0 161
145 145 161 145 145 178 145 145 160 144 144 160 144 144 43 24 24 43 24
24 43 24 24 26 23 23 26 23 23 26 23 23 43 24 24 43 24 24 43 24 24 43
24 24 26 23 23 19 6 0 19 6 0 19 6 0 19 6 0 19 6 0 19 6 0 19 6 0 19 6 0
116 39 0 116 39 0 115 38 0 115 38 0 115 38 0 115 38 0 115 38 0 114 38
0 152 137 137 152 137 137 152 137 137 152 136 136 46 92 9 57 114 11 61
123 12 63 127 13 64 128 13 63 126 13 61 123 12 59 118 12 56 112 11 52
104 10 47 95 9 42 84 8 36 72 7 29 57 6 20 40 4 13 26 3 13 26 3 19 6 0
19 6 0 19 6 0 19 6 0 19 6 0 19 6 0 19 6 0 19 6 0 19 6 0 19 6 0 108 36
0 144 129 129 144 129 129
128 43 0 128 43 0 128 43 0 128 43 0 127 42 0 127 42 0 127 42 0 127 42
0 127 42 0 126 42 0 126 42 0 168 151 151 168 151 151 150 120 15 156
125 16 150 120 15 140 112 14 127 102 13 113 90 11 96 77 10 78 62 8 58
46 6 35 28 4 26 20 3 26 20 3 26 20 3 123 41 0 123 41 0 123 41 0 122 41
0 122 41 0 19 6 0 19 6 0 26 23 23 43 24 24 179 146 146 161 145 145 161
145 145 161 145 145 178 145 145 178 145 145 178 145 145 160 144 144
160 144 144 159 143 143 177 144 144 176 143 144 176 143 143 176 143
143 158 142 142 118 39 0 118 39 0 118 39 0 118 39 0 117 39 0 117 39 0
117 39 0 117 39 0 117 39 0 116 39 0 116 39 0 116 39 0 116 39 0 116 39
0 115 38 0 115 38 0 115 38 0 153 138 138 153 138 138 153 137 137 152
137 137 42 84 8 50 100 10 54 107 11 55 109 11 54 109 11 53 106 11 51
102 10 48 96 10 44 88 9 39 79 8 34 68 7 27 55 5 20 39 4 13 26 3 13 26
3 13 26 3 19 6 0 19 6 0 19 6 0 19 6 0 19 6 0 19 6 0 19 6 0 19 6 0 19 6
0 19 6 0 19 6 0 109 36 0 109 36 0
129 43 0 128 43 0 128 43 0 128 43 0 128 43 0 128 43 0 128 43 0 127 42
0 127 42 0 127 42 0 127 42 0 127 42 0 126 42 0 126 42 0 136 108 14 132
105 13 123 98 12 110 88 11 96 77 10 79 63 8 61 49 6 40 32 4 26 20 3 26
20 3 26 20 3 26 20 3 26 23 23 26 23 23 26 23 23 26 23 23 26 23 23 26
23 23 26 23 23 37 7 1 37 7 1 37 7 1 19 6 0 121 40 0 121 40 0 139 41 1
138 41 1 138 41 1 120 40 0 120 40 0 120 40 0 137 41 1 137 41 1 137 40
1 119 40 0 119 40 0 159 143 143 158 142 142 158 142 142 158 142 142
157 142 142 157 141 141 157 141 141 157 141 141 156 141 141 156 141
141 156 140 140 156 140 140 155 140 140 155 140 140 155 139 139 155
139 139 154 139 139 116 39 0 115 38 0 115 38 0 115 38 0 115 38 0 33 67
7 41 81 8 43 87 9 44 88 9 43 86 9 41 82 8 38 76 8 34 69 7 30 59 6 24
48 5 17 34 3 13 26 3 13 26 3 13 26 3 26 23 23 26 23 23 26 23 23 26 23
23 26 23 23 26 23 23 26 23 23 26 23 23 26 23 23 26 23 23 26 23 23 26
23 23 146 132 132 146 131 131
129 43 0 129 43 0 129 43 0 129 43 0 128 43 0 128 43 0 128 43 0 128 43
0 128 43 0 127 42 0 127 42 0 127 42 0 127 42 0 127 42 0 107 86 11 109
88 11 102 82 10 90 72 9 76 61 8 60 48 6 41 33 4 26 20 3 26 20 3 26 20
3 26 20 3 26 23 23 26 23 23 26 23 23 26 23 23 26 23 23 26 23 23 26 23
23 19 6 0 37 7 1 37 7 1 19 6 0 122 41 0 122 41 0 139 41 1 139 41 1 139
41 1 139 41 1 121 40 0 121 40 0 121 40 0 138 41 1 138 41 1 138 41 1
120 40 0 120 40 0 159 143 143 159 143 143 176 144 144 159 143 143 158
142 142 158 142 142 158 142 142 158 142 142 157 142 142 157 141 141
157 141 141 156 141 141 156 141 141 156 140 140 156 140 140 155 140
140 155 140 140 155 139 139 116 39 0 116 39 0 116 39 0 115 38 0 115 38
0 18 36 4 27 54 5 30 60 6 30 61 6 29 58 6 26 53 5 23 45 5 18 35 4 13
26 3 13 26 3 13 26 3 13 26 3 19 6 0 26 23 23 26 23 23 26 23 23 26 23
23 26 23 23 26 23 23 26 23 23 26 23 23 26 23 23 26 23 23 148 133 133
147 133 133 147 132 132 147 132 132
129 43 0 129 43 0 129 43 0 129 43 0 129 43 0 129 43 0 128 43 0 128 43
0 128 43 0 128 43 0 128 43 0 127 42 0 127 42 0 169 152 152 169 152 152
78 62 8 76 61 8 66 53 7 53 42 5 36 29 4 26 20 3 26 20 3 26 20 3 26 20
3 26 23 23 26 23 23 26 23 23 26 23 23 26 23 23 26 23 23 26 23 23 19 6
0 43 7 1 42 7 1 144 42 1 123 41 0 123 41 0 123 41 0 140 41 1 140 41 1
139 41 1 139 41 1 122 41 0 121 40 0 121 40 0 138 41 1 138 41 1 138 41
1 120 40 0 120 40 0 160 144 144 160 144 144 177 144 144 177 144 144
159 143 143 159 143 143 159 143 143 158 142 142 158 142 142 158 142
142 158 142 142 157 142 142 157 141 141 157 141 141 157 141 141 156
141 141 156 140 140 156 140 140 117 39 0 116 39 0 116 39 0 116 39 0
116 39 0 116 39 0 28 24 2 13 26 3 13 26 3 13 26 3 13 26 3 13 26 3 13
26 3 13 26 3 13 26 3 19 6 0 19 6 0 19 6 0 19 6 0 26 23 23 26 23 23 26
23 23 26 23 23 26 23 23 26 23 23 26 23 23 149 134 134 149 134 134 149
134 134 148 134 134 148 133 133 148 133 133
130 43 0 130 43 0 129 43 0 129 43 0 129 43 0 129 43 0 129 43 0 129 43
0 128 43 0 128 43 0 128 43 0 170 153 153 170 153 153 170 153 153 170
153 153 169 153 153 169 152 152 32 26 3 26 20 3 26 20 3 26 20 3 26 20
3 26 20 3 26 23 23 26 23 23 26 23 23 26 23 23 26 23 23 26 23 23 26 23
23 19 6 0 124 41 0 156 42 1 154 42 1 151 42 1 123 41 0 123 41 0 123 41
0 140 42 1 140 41 1 140 41 1 122 41 0 122 41 0 122 41 0 122 41 0 139
41 1 139 41 1 139 41 1 121 40 0 121 40 0 161 145 145 161 144 144 178
145 145 178 145 145 177 144 145 160 144 144 159 143 143 159 143 143
159 143 143 159 143 143 158 142 142 158 142 142 158 142 142 158 142
142 157 142 142 157 141 141 157 141 141 157 141 141 156 141 141 117 39
0 117 39 0 117 39 0 125 57 2 125 57 2 125 57 2 125 56 2 125 56 2 28 24
2 28 24 2 28 24 2 28 24 2 28 24 2 19 6 0 19 6 0 19 6 0 19 6 0 19 6 0
19 6 0 26 23 23 26 23 23 151 136 136 151 136 136 150 135 135 150 135
135 150 135 135 150 135 135 150 135 135 149 134 134 149 134 134 149
134 134
130 43 0 130 43 0 130 43 0 130 43 0 129 43 0 129 43 0 129 43 0 129 43
0 129 43 0 129 43 0 171 154 154 171 154 154 171 154 154 170 153 153
170 153 153 170 153 153 170 153 153 187 167 154 43 37 25 43 37 25 43
37 25 43 37 25 43 37 25 43 37 25 43 37 25 26 23 23 167 151 151 167 150
150 167 150 150 167 150 150 125 42 0 125 42 0 164 43 2 161 43 2 159 43
2 124 41 0 124 41 0 123 41 0 145 42 1 141 42 1 140 42 1 123 41 0 123
41 0 122 41 0 122 41 0 139 41 1 139 41 1 139 41 1 121 40 0 121 40 0
161 145 145 161 145 145 178 145 146 178 145 145 178 145 145 160 144
144 160 144 144 160 144 144 159 144 144 159 143 143 159 143 143 159
143 143 158 143 143 158 142 142 158 142 142 158 142 142 158 142 142
157 142 142 157 141 141 157 141 141 117 39 0 126 57 2 126 57 2 126 57
2 126 57 2 125 57 2 125 57 2 125 57 2 125 57 2 125 56 2 125 56 2 124
56 2 124 56 2 124 56 2 115 38 0 115 38 0 115 38 0 114 38 0 114 38 0
114 38 0 152 137 137 152 136 136 151 136 136 151 136 136 151 136 136
151 136 136 150 135 135 150 135 135 150 135 135 150 135 135
174 157 157 174 156 156 173 156 156 173 156 156 130 43 0 130 43 0 129
43 0 129 43 0 172 155 155 172 155 155 172 154 154 171 154 154 171 154
154 171 154 154 171 154 154 170 153 153 188 167 155 188 167 155 188
167 154 187 167 154 187 167 154 187 166 154 187 166 154 186 166 153
186 166 153 186 165 153 168 151 151 168 151 151 167 151 151 175 44 2
125 42 0 125 42 0 171 43 2 168 43 2 165 43 2 124 41 0 124 41 0 124 41
0 151 42 1 147 42 1 143 42 1 123 41 0 123 41 0 123 41 0 123 41 0 140
41 1 140 41 1 140 41 1 122 41 0 122 41 0 162 146 146 162 146 146 179
146 146 179 146 146 179 146 146 161 145 145 161 145 145 160 144 144
160 144 144 160 144 144 160 144 144 159 143 143 159 143 143 159 143
143 159 143 143 158 143 143 158 142 142 158 142 142 158 142 142 157
142 142 131 66 3 132 68 3 131 67 3 130 64 2 128 60 2 126 57 2 126 57 2
126 57 2 125 57 2 125 57 2 125 57 2 125 57 2 125 56 2 125 56 2 124 56
2 115 38 0 115 38 0 115 38 0 115 38 0 115 38 0 114 38 0 152 137 137
152 137 137 152 137 137 152 137 137 151 136 136 151 136 136 151 136
136 151 136 136 151 135 135
174 157 157 174 157 157 174 156 156 174 156 156 173 156 156 173 156
156 173 156 156 129 43 0 129 43 0 129 43 0 129 43 0 129 43 0 129 43 0
128 43 0 128 43 0 157 66 3 149 60 2 146 57 2 145 57 2 145 57 2 145 57
2 145 57 2 145 57 2 145 57 2 144 56 2 144 56 2 126 42 0 126 42 0 168
151 151 168 151 151 167 151 151 167 150 150 220 152 152 217 152 152
213 151 152 166 149 149 166 149 149 166 149 149 199 150 150 195 150
150 190 149 150 165 148 148 164 148 148 164 148 148 164 148 148 181
148 148 181 148 148 181 148 148 163 147 147 163 147 147 122 41 0 122
41 0 139 41 1 139 41 1 139 41 1 121 40 0 121 40 0 121 40 0 121 40 0
120 40 0 120 40 0 120 40 0 120 40 0 120 40 0 119 40 0 119 40 0 119 40
0 119 40 0 119 40 0 138 78 4 141 84 4 180 186 146 178 184 146 176 180
145 174 175 145 171 170 144 168 164 143 165 159 142 165 158 142 165
158 142 165 158 142 164 158 142 164 157 141 164 157 141 164 157 141
163 157 141 154 139 139 154 139 139 154 138 138 154 138 138 153 138
138 153 138 138 115 38 0 114 38 0 114 38 0 114 38 0 114 38 0 114 38 0
114 38 0 113 38 0
175 157 157 174 157 157 174 157 157 174 157 157 174 156 156 173 156
156 130 43 0 130 43 0 130 43 0 129 43 0 129 43 0 129 43 0 129 43 0 129
43 0 129 43 0 173 78 4 164 71 4 154 64 3 146 57 2 146 57 2 145 57 2
145 57 2 145 57 2 145 57 2 145 57 2 144 56 2 144 56 2 168 152 152 233
154 154 168 151 151 168 151 151 229 153 153 226 153 153 223 152 153
167 150 150 167 150 150 166 150 150 166 149 149 205 151 151 201 150
151 196 150 150 165 149 149 165 148 148 165 148 148 164 148 148 182
148 149 181 148 148 181 148 148 164 147 147 122 41 0 122 41 0 122 41 0
139 41 1 139 41 1 139 41 1 121 40 0 121 40 0 121 40 0 121 40 0 121 40
0 121 40 0 120 40 0 120 40 0 120 40 0 120 40 0 120 40 0 120 40 0 119
40 0 119 40 0 147 96 6 148 98 6 187 200 148 185 197 148 183 193 147
181 188 146 178 183 146 175 176 145 171 170 144 168 163 143 165 159
143 165 158 142 165 158 142 165 158 142 165 158 142 164 158 142 164
157 141 155 139 139 155 139 139 154 139 139 154 139 139 154 139 139
154 138 138 154 138 138 115 38 0 115 38 0 115 38 0 115 38 0 114 38 0
114 38 0 114 38 0
