P3
100 50
255
0 0 0 0 0 0 0 0 0 0 0 0 0 0 0 0 0 0 0 0 0 0 0 0 0 0 0 0 0 0 0 0 0 0 0
0 0 0 0 0 0 0 0 0 0 0 0 0 0 0 0 0 0 0 0 0 0 0 0 0 0 0 0 0 0 0 0 0 0 0
0 0 0 0 0 0 0 0 0 0 0 0 0 0 0 0 0 0 0 0 0 0 0 0 0 0 0 0 0 0 0 0 0 0 0
0 0 0 0 0 0 0 0 0 0 0 0 0 0 0 0 0 0 0 0 0 0 0 0 0 0 0 0 0 0 0 0 0 0 0
0 0 0 0 0 0 0 0 0 0 0 0 0 0 0 0 0 0 0 0 0 0 0 0 0 0 0 0 0 0 0 0 0 0 0
0 0 0 0 0 0 0 0 0 0 0 0 0 0 0 0 0 0 0 0 0 0 0 0 0 0 0 0 0 0 0 0 0 0 0
0 0 0 0 0 0 0 0 0 0 0 0 0 0 0 0 0 0 0 0 0 0 0 0 0 0 0 0 0 0 0 0 0 0 0
0 0 0 0 0 0 0 0 0 0 0 0 0 0 0 0 0 0 0 0 0 0 0 0 0 0 0 0 0 0 0 0 0 0 0
0 0 0 0 0 0 0 0 0 0 0 0 0 0 0 0 0 0 0 0
0 0 0 0 0 0 0 0 0 0 0 0 0 0 0 0 0 0 0 0 0 0 0 0 0 0 0 0 0 0 0 0 0 0 0
0 0 0 0 0 0 0 0 0 0 0 0 0 0 0 0 0 0 0 0 0 0 0 0 0 0 0 0 0 0 0 0 0 0 0
0 0 0 0 0 0 0 0 0 0 0 0 0 0 0 0 0 0 0 0 0 0 0 0 0 0 0 0 0 0 0 0 0 0 0
0 0 0 0 0 0 0 0 0 0 0 0 0 0 0 0 0 0 0 0 0 0 0 0 0 0 0 0 0 0 0 0 0 0 0
0 0 0 0 0 0 0 0 0 0 0 0 0 0 0 0 0 0 0 0 0 0 0 0 0 0 0 0 0 0 0 0 0 0 0
0 0 0 0 0 0 0 0 0 0 0 0 0 0 0 0 0 0 0 0 0 0 0 0 0 0 0 0 0 0 0 0 0 0 0
0 0 0 0 0 0 0 0 0 0 0 0 0 0 0 0 0 0 0 0 0 0 0 0 0 0 0 0 0 0 0 0 0 0 0
0 0 0 0 0 0 0 0 0 0 0 0 0 0 0 0 0 0 0 0 0 0 0 0 0 0 0 0 0 0 0 0 0 0 0
0 0 0 0 0 0 0 0 0 0 0 0 0 0 0 0 0 0 0 0
0 0 0 0 0 0 0 0 0 0 0 0 0 0 0 0 0 0 0 0 0 0 0 0 0 0 0 0 0 0 0 0 0 0 0
0 0 0 0 0 0 0 0 0 0 0 0 0 0 0 0 0 0 0 0 0 0 0 0 0 0 0 0 0 0 0 0 0 0 0
0 0 0 0 0 0 0 0 0 0 0 0 0 0 0 0 0 0 0 0 0 0 0 0 0 0 0 0 0 0 0 0 0 0 0
0 0 0 0 0 0 0 0 0 0 0 0 0 0 0 0 0 0 0 0 0 0 0 0 0 0 0 0 0 0 0 0 0 0 0
0 0 0 0 0 0 0 0 0 0 0 0 0 0 0 0 0 0 0 0 0 0 0 0 0 0 0 0 0 0 0 0 0 0 0
0 0 0 0 0 0 0 0 0 0 0 0 0 0 0 0 0 0 0 0 0 0 0 0 0 0 0 0 0 0 0 0 0 0 0
0 0 0 0 0 0 0 0 0 0 0 0 0 0 0 0 0 0 0 0 0 0 0 0 0 0 0 0 0 0 0 0 0 0 0
0 0 0 0 0 0 0 0 0 0 0 0 0 0 0 0 0 0 0 0 0 0 0 0 0 0 0 0 0 0 0 0 0 0 0
0 0 0 0 0 0 0 0 0 0 0 0 0 0 0 0 0 0 0 0
0 0 0 0 0 0 0 0 0 0 0 0 0 0 0 0 0 0 0 0 0 0 0 0 0 0 0 0 0 0 0 0 0 0 0
0 0 0 0 0 0 0 0 0 0 0 0 0 0 0 0 0 0 0 0 0 0 0 0 0 0 0 0 0 0 0 0 0 0 0
0 0 0 0 0 0 0 0 0 0 0 0 0 0 0 0 0 0 0 0 0 0 0 0 0 0 0 0 0 0 0 0 0 0 0
0 0 0 0 0 0 0 0 0 0 0 0 0 0 0 0 0 0 0 0 0 0 0 0 0 0 0 0 0 0 0 0 0 0 0
0 0 0 0 0 0 0 0 0 0 0 0 0 0 0 0 0 0 0 0 0 0 0 0 0 0 0 0 0 0 0 0 0 0 0
0 0 0 0 0 0 0 0 0 0 0 0 0 0 0 0 0 0 0 0 0 0 0 0 0 0 0 0 0 0 0 0 0 0 0
0 0 0 0 0 0 0 0 0 0 0 0 0 0 0 0 0 0 0 0 0 0 0 0 0 0 0 0 0 0 0 0 0 0 0
0 0 0 0 0 0 0 0 0 0 0 0 0 0 0 0 0 0 0 0 0 0 0 0 0 0 0 0 0 0 0 0 0 0 0
0 0 0 0 0 0 0 0 0 0 0 0 0 0 0 0 0 0 0 0
0 0 0 0 0 0 0 0 0 0 0 0 0 0 0 0 0 0 0 0 0 0 0 0 0 0 0 0 0 0 0 0 0 0 0
0 0 0 0 0 0 0 0 0 0 0 0 0 0 0 0 0 0 0 0 0 0 0 0 0 0 0 0 0 0 0 0 0 0 0
0 0 0 0 0 0 0 0 0 0 0 0 0 0 0 0 0 0 0 0 0 0 0 0 0 0 0 0 0 0 0 0 0 0 0
0 0 0 0 0 0 0 0 0 0 0 0 0 0 0 0 0 0 0 0 0 0 0 0 0 0 0 0 0 0 0 0 0 0 0
0 0 0 0 0 0 0 0 0 0 0 0 0 0 0 0 0 0 0 0 0 0 0 0 0 0 0 0 0 0 0 0 0 0 0
0 0 0 0 0 0 0 0 0 0 0 0 0 0 0 0 0 0 0 0 0 0 0 0 0 0 0 0 0 0 0 0 0 0 0
0 0 0 0 0 0 0 0 0 0 0 0 0 0 0 0 0 0 0 0 0 0 0 0 0 0 0 0 0 0 0 0 0 0 0
0 0 0 0 0 0 0 0 0 0 0 0 0 0 0 0 0 0 0 0 0 0 0 0 0 0 0 0 0 0 0 0 0 0 0
0 0 0 0 0 0 0 0 0 0 0 0 0 0 0 0 0 0 0 0
0 0 0 0 0 0 0 0 0 0 0 0 0 0 0 0 0 0 0 0 0 0 0 0 0 0 0 0 0 0 0 0 0 0 0
0 0 0 0 0 0 0 0 0 0 0 0 0 0 0 0 0 0 0 0 0 0 0 0 0 0 0 0 0 0 0 0 0 0 0
0 0 0 0 0 0 0 0 0 0 0 0 0 0 0 0 0 0 0 0 0 0 0 0 0 0 0 0 0 0 0 0 0 0 0
0 0 0 0 0 0 0 0 0 0 0 0 0 0 0 0 0 0 0 0 0 0 0 0 0 0 0 0 0 0 0 0 0 0 0
0 0 0 0 0 0 0 0 0 0 0 0 0 0 0 0 0 0 0 0 0 0 0 0 0 0 0 0 0 0 0 0 0 0 0
0 0 0 0 0 0 0 0 0 0 0 0 0 0 0 0 0 0 0 0 0 0 0 0 0 0 0 0 0 0 0 0 0 0 0
0 0 0 0 0 0 0 0 0 0 0 0 0 0 0 0 0 0 0 0 0 0 0 0 0 0 0 0 0 0 0 0 0 0 0
0 0 0 0 0 0 0 0 0 0 0 0 0 0 0 0 0 0 0 0 0 0 0 0 0 0 0 0 0 0 0 0 0 0 0
0 0 0 0 0 0 0 0 0 0 0 0 0 0 0 0 0 0 0 0
0 0 0 0 0 0 0 0 0 0 0 0 0 0 0 0 0 0 0 0 0 0 0 0 0 0 0 0 0 0 0 0 0 0 0
0 0 0 0 0 0 0 0 0 0 0 0 0 0 0 0 0 0 0 0 0 0 0 0 0 0 0 0 0 0 0 0 0 0 0
0 0 0 0 0 0 0 0 0 0 0 0 0 0 0 0 0 0 0 0 0 0 0 0 0 0 0 0 0 0 0 0 0 0 0
0 0 0 0 0 0 0 0 0 0 0 0 0 0 0 0 0 0 0 0 0 0 0 0 0 0 0 0 0 0 0 0 0 0 0
0 0 0 0 0 0 0 0 0 0 0 0 0 0 0 0 0 0 0 0 0 0 0 0 0 0 0 0 0 0 0 0 0 0 0
0 0 0 0 0 0 0 0 0 0 0 0 0 0 0 0 0 0 0 0 0 0 0 0 0 0 0 0 0 0 0 0 0 0 0
0 0 0 0 0 0 0 0 0 0 0 0 0 0 0 0 0 0 0 0 0 0 0 0 0 0 0 0 0 0 0 0 0 0 0
0 0 0 0 0 0 0 0 0 0 0 0 0 0 0 0 0 0 0 0 0 0 0 0 0 0 0 0 0 0 0 0 0 0 0
0 0 0 0 0 0 0 0 0 0 0 0 0 0 0 0 0 0 0 0
0 0 0 0 0 0 0 0 0 0 0 0 0 0 0 0 0 0 0 0 0 0 0 0 0 0 0 0 0 0 0 0 0 0 0
0 0 0 0 0 0 0 0 0 0 0 0 0 0 0 0 0 0 0 0 0 0 0 0 0 0 0 0 0 0 0 0 0 0 0
0 0 0 0 0 0 0 0 0 0 0 0 0 0 0 0 0 0 0 0 0 0 0 0 0 0 0 0 0 0 0 0 0 0 0
0 0 0 0 0 0 0 0 0 0 0 0 0 0 0 0 0 0 0 0 0 0 0 0 0 0 0 0 0 0 0 0 0 0 0
0 0 0 0 0 0 0 0 0 0 0 0 0 0 0 0 0 0 0 0 0 0 0 0 0 0 0 0 0 0 0 0 0 0 0
0 0 0 0 0 0 0 0 0 0 0 0 0 0 0 0 0 0 0 0 0 0 0 0 0 0 0 0 0 0 0 0 0 0 0
0 0 0 0 0 0 0 0 0 0 0 0 0 0 0 0 0 0 0 0 0 0 0 0 0 0 0 0 0 0 0 0 0 0 0
0 0 0 0 0 0 0 0 0 0 0 0 0 0 0 0 0 0 0 0 0 0 0 0 0 0 0 0 0 0 0 0 0 0 0
0 0 0 0 0 0 0 0 0 0 0 0 0 0 0 0 0 0 0 0
0 0 0 0 0 0 0 0 0 0 0 0 0 0 0 0 0 0 0 0 0 0 0 0 0 0 0 0 0 0 0 0 0 0 0
0 0 0 0 0 0 0 0 0 0 0 0 0 0 0 0 0 0 0 0 0 0 0 0 0 0 0 0 0 0 0 0 0 0 0
0 0 0 0 0 0 0 0 0 0 0 0 0 0 0 0 0 0 0 0 0 0 0 0 0 0 0 0 0 0 0 0 0 0 0
0 0 0 0 0 0 0 0 0 0 0 0 0 0 0 14 143 72 14 139 70 13 132 66 12 122 61
0 0 0 0 0 0 0 0 0 0 0 0 0 0 0 0 0 0 0 0 0 0 0 0 0 0 0 0 0 0 0 0 0 0 0
0 0 0 0 0 0 0 0 0 0 0 0 0 0 0 0 0 0 0 0 0 0 0 0 0 0 0 0 0 0 0 0 0 0 0
0 0 0 0 0 0 0 0 0 0 0 0 0 0 0 0 0 0 0 0 0 0 0 0 0 0 0 0 0 0 0 0 0 0 0
0 0 0 0 0 0 0 0 0 0 0 0 0 0 0 0 0 0 0 0 0 0 0 0 0 0 0 0 0 0 0 0 0 0 0
0 0 0 0 0 0 0 0 0 0 0 0 0 0 0 0 0 0 0 0 0 0 0 0 0 0 0 0
0 0 0 0 0 0 0 0 0 0 0 0 0 0 0 0 0 0 0 0 0 0 0 0 0 0 0 0 0 0 0 0 0 0 0
0 0 0 0 0 0 0 0 0 0 0 0 0 0 0 0 0 0 0 0 0 0 0 0 0 0 0 0 0 0 0 0 0 0 0
0 0 0 0 0 0 0 0 0 0 0 0 0 0 0 0 0 0 0 0 0 0 0 0 0 0 0 0 0 0 0 0 0 0 0
0 0 0 17 170 85 17 172 86 17 170 85 17 166 83 16 161 81 16 155 78 15
148 74 14 140 70 13 132 66 12 121 61 11 109 55 9 93 47 0 0 0 0 0 0 0 0
0 0 0 0 0 0 0 0 0 0 0 0 0 0 0 0 0 0 0 0 0 0 0 0 0 0 0 0 0 0 0 0 0 0 0
0 0 0 0 0 0 0 0 0 0 0 0 0 0 0 0 0 0 0 0 0 0 0 0 0 0 0 0 0 0 0 0 0 0 0
0 0 0 0 0 0 0 0 0 0 0 0 0 0 0 0 0 0 0 0 0 0 0 0 0 0 0 0 0 0 0 0 0 0 0
0 0 0 0 0 0 0 0 0 0 0 0 0 0 0 0 0 0 0 0 0 0 0 0 0 0 0 0 0 0 0 0 0 0 0
0 0 0 0 0 0 0 0
0 0 0 0 0 0 0 0 0 0 0 0 0 0 0 0 0 0 0 0 0 0 0 0 0 0 0 0 0 0 0 0 0 0 0
0 0 0 0 0 0 0 0 0 0 0 0 0 0 0 0 0 0 0 0 0 0 0 0 0 0 0 0 0 0 0 0 0 0 0
0 0 0 0 0 0 0 0 0 0 0 0 0 0 0 0 0 0 0 0 0 0 0 0 0 0 0 0 0 0 0 0 18 182
91 19 185 93 18 184 92 18 181 91 18 177 89 17 173 86 17 167 84 16 161
80 15 154 77 15 146 73 14 138 69 13 129 65 12 119 60 11 108 54 9 95 47
8 77 38 0 0 0 0 0 0 0 0 0 0 0 0 0 0 0 0 0 0 0 0 0 0 0 0 0 0 0 0 0 0 0
0 0 0 0 0 0 0 0 0 0 0 0 0 0 0 0 0 0 0 0 0 0 0 0 0 0 0 0 0 0 0 0 0 0 0
0 0 0 0 0 0 0 0 0 0 0 0 0 0 0 0 0 0 0 0 0 0 0 0 0 0 0 0 0 0 0 0 0 0 0
0 0 0 0 0 0 0 0 0 0 0 0 0 0 0 0 0 0 0 0 0 0 0 0 0 0 0 0 0 0 0 0 0 0 0
0 0 0 0 0 0 0 0 0 0 0 0 0 0
0 0 0 0 0 0 0 0 0 0 0 0 0 0 0 0 0 0 0 0 0 0 0 0 0 0 0 0 0 0 0 0 0 0 0
0 0 0 0 0 0 0 0 0 0 0 0 0 0 0 0 0 0 0 0 0 0 0 0 0 0 0 0 0 0 0 0 0 0 0
0 0 0 0 0 0 0 0 0 0 0 0 0 0 0 0 0 0 0 0 0 0 0 0 0 0 0 0 0 19 192 96 19
193 97 19 192 96 19 189 94 19 185 93 18 181 90 18 175 88 17 170 85 16
163 82 16 157 78 15 149 75 14 142 71 13 133 67 12 124 62 11 114 57 10
102 51 9 89 45 7 73 37 5 48 24 0 0 0 0 0 0 0 0 0 0 0 0 0 0 0 0 0 0 0 0
0 0 0 0 0 0 0 0 0 0 0 0 0 0 0 0 0 0 0 0 0 0 0 0 0 0 0 0 0 0 0 0 0 0 0
0 0 0 0 0 0 0 0 0 0 0 0 0 0 0 0 0 0 0 0 0 0 0 0 0 0 0 0 0 0 0 0 0 0 0
0 0 0 0 0 0 0 0 0 0 0 0 0 0 0 0 0 0 0 0 0 0 0 0 0 0 0 0 0 0 0 0 0 0 0
0 0 0 0 0 0 0 0 0 0 0 0 0 0 0 0 0 0 0
0 0 0 0 0 0 0 0 0 0 0 0 0 0 0 0 0 0 0 0 0 0 0 0 0 0 0 0 0 0 0 0 0 0 0
0 0 0 0 0 0 0 0 0 0 0 0 0 0 0 0 0 0 0 0 0 0 0 0 0 0 0 0 0 0 0 0 0 0 0
0 0 0 0 0 0 0 0 0 0 0 0 0 0 0 0 0 0 0 0 0 0 0 19 188 94 20 197 99 20
198 99 20 197 98 19 194 97 19 191 95 19 187 93 18 182 91 18 176 88 17
171 85 16 164 82 16 158 79 15 151 75 14 143 72 13 135 67 13 126 63 12
117 58 11 106 53 9 95 47 8 81 41 7 66 33 4 43 21 0 0 0 0 0 0 0 0 0 0 0
0 0 0 0 0 0 0 0 0 0 0 0 0 0 0 0 0 0 0 0 0 0 0 0 0 0 0 0 0 0 0 0 0 0 0
0 0 0 0 0 0 0 0 0 0 0 0 0 0 0 0 0 0 0 0 0 0 0 0 0 0 0 0 0 0 0 0 0 0 0
0 0 0 0 0 0 0 0 0 0 0 0 0 0 0 0 0 0 0 0 0 0 0 0 0 0 0 0 0 0 0 0 0 0 0
0 0 0 0 0 0 0 0 0 0 0 0 0 0 0 0 0 0 0 0 0 0 0 0 0
0 0 0 0 0 0 0 0 0 0 0 0 0 0 0 0 0 0 0 0 0 0 0 0 0 0 0 0 0 0 0 0 0 0 0
0 0 0 0 0 0 0 0 0 0 0 0 0 0 0 0 0 0 0 0 0 0 0 0 0 0 0 0 0 0 0 0 0 0 0
0 0 0 0 0 0 0 0 0 0 0 0 0 0 0 0 0 0 0 0 19 190 95 20 200 100 20 201
101 20 201 100 20 198 99 20 195 98 19 191 96 19 187 93 18 182 91 18
176 88 17 171 85 16 164 82 16 158 79 15 151 75 14 143 72 14 135 68 13
127 63 12 118 59 11 108 54 10 97 49 9 85 43 7 72 36 6 55 28 3 32 16 0
0 0 0 0 0 0 0 0 0 0 0 0 0 0 0 0 0 0 0 0 0 0 0 0 0 0 0 0 0 0 0 0 0 0 0
0 0 0 0 0 0 0 0 0 0 0 0 0 0 0 0 0 0 0 0 0 0 0 0 0 0 0 0 0 0 0 0 0 0 0
0 0 0 0 0 0 0 0 0 0 0 0 0 0 0 0 0 0 0 0 0 0 0 0 0 0 0 0 0 0 0 0 0 0 0
0 0 0 0 0 0 0 0 0 0 0 0 0 0 0 0 0 0 0 0 0 0 0 0 0 0 0 0 0 0 0 0
0 0 0 0 0 0 0 0 0 0 0 0 0 0 0 0 0 0 0 0 0 0 0 0 0 0 0 0 0 0 0 0 0 0 0
0 0 0 0 0 0 0 0 0 0 0 0 0 0 0 0 0 0 0 0 0 0 0 0 0 0 0 0 0 0 0 0 0 0 0
0 0 0 0 0 0 0 0 0 0 0 0 0 0 0 0 0 0 0 0 20 201 100 20 203 102 20 203
101 20 201 101 20 198 99 19 195 97 19 191 95 19 186 93 18 181 90 18
176 88 17 170 85 16 164 82 16 157 78 15 150 75 14 143 71 13 135 67 13
127 63 12 118 59 11 108 54 10 98 49 9 87 43 7 74 37 6 60 30 4 43 21 3
26 13 0 0 0 0 0 0 0 0 0 0 0 0 0 0 0 0 0 0 0 0 0 0 0 0 0 0 0 0 0 0 0 0
0 0 0 0 0 0 0 0 0 0 0 0 0 0 0 0 0 0 0 0 0 0 0 0 0 0 0 0 0 0 0 0 0 0 0
0 0 0 0 0 0 0 0 0 0 0 0 0 0 0 0 0 0 0 0 0 0 0 0 0 0 0 0 0 0 0 0 0 0 0
0 0 0 0 0 0 0 0 0 0 0 0 0 0 0 0 0 0 0 0 0 0 0 0 0 0 0 0 0 0 0 0 0
0 0 0 0 0 0 0 0 0 0 0 0 0 0 0 0 0 0 0 0 0 0 0 0 0 0 0 0 0 0 0 0 0 0 0
0 0 0 0 0 0 0 0 0 0 0 0 0 0 0 0 0 0 0 0 0 0 0 0 0 0 0 0 0 0 0 0 0 0 0
0 0 0 0 0 0 0 0 0 0 0 0 0 0 0 0 0 20 199 100 20 203 102 20 204 102 20
203 101 20 200 100 20 197 99 19 193 97 19 189 95 18 185 92 18 179 90
17 174 87 17 168 84 16 162 81 16 156 78 15 149 74 14 141 71 13 134 67
13 126 63 12 117 58 11 108 54 10 98 49 9 87 44 8 76 38 6 62 31 5 47 24
3 28 14 0 0 0 0 0 0 0 0 0 0 0 0 0 0 0 0 0 0 0 0 0 0 0 0 0 0 0 0 0 0 0
0 0 0 0 0 0 0 0 0 0 0 0 0 0 0 0 0 0 0 0 0 0 0 0 0 0 0 0 0 0 0 0 0 0 0
0 0 0 0 0 0 0 0 0 0 0 0 0 0 0 0 0 0 0 0 0 0 0 0 0 0 0 0 0 0 0 0 0 0 0
0 0 0 0 0 0 0 0 0 0 0 0 0 0 0 0 0 0 0 0 0 0 0 0 0 0 0 0 0 0 0 0 0 0
27 25 25 27 25 25 27 25 25 27 25 25 27 25 25 27 25 25 27 25 25 27 25
25 27 25 25 27 25 25 27 25 25 27 25 25 27 25 25 27 25 25 27 25 25 27
25 25 27 25 25 27 25 25 27 25 25 27 25 25 27 25 25 27 25 25 27 25 25
27 25 25 27 25 25 27 25 25 27 25 25 27 25 25 19 194 97 20 202 101 20
204 102 20 203 102 20 201 101 20 199 99 20 196 98 19 192 96 19 187 94
18 183 91 18 177 89 17 172 86 17 166 83 16 160 80 15 154 77 15 147 73
14 140 70 13 132 66 12 124 62 12 116 58 11 107 53 10 97 48 9 87 43 8
75 38 6 63 31 5 49 24 3 32 16 3 26 13 28 25 25 28 25 25 28 25 25 28 25
25 28 25 25 28 25 25 28 25 25 27 25 25 27 25 25 27 25 25 27 25 25 27
25 25 27 25 25 27 25 25 27 25 25 27 25 25 27 25 25 27 25 25 27 25 25
27 25 25 27 25 25 27 25 25 27 25 25 27 25 25 27 25 25 27 25 25 27 25
25 27 25 25 27 25 25 27 25 25 27 25 25 27 25 25 27 25 25 27 25 25 27
25 25 27 25 25 27 25 25 27 25 25 27 25 25 27 25 25 27 25 25 27 25 25
27 25 25 27 25 25
43 38 38 43 38 38 43 38 38 43 38 38 43 39 39 43 39 39 43 39 39 43 39
39 43 39 39 43 39 39 43 39 39 43 39 39 43 39 39 43 39 39 43 39 39 44
39 39 44 39 39 44 39 39 44 39 39 44 39 39 44 39 39 44 39 39 44 39 39
44 40 40 44 40 40 44 40 40 44 40 40 44 40 40 20 198 99 20 202 101 20
203 101 20 202 101 20 200 100 20 197 98 19 193 97 19 189 95 19 185 93
18 180 90 17 175 87 17 169 85 16 164 82 16 158 79 15 151 76 14 144 72
14 137 69 13 130 65 12 122 61 11 114 57 10 105 52 10 95 48 9 85 43 7
74 37 6 62 31 5 49 25 3 34 17 3 26 13 3 26 13 44 40 40 44 40 40 44 40
40 44 40 40 44 40 40 44 39 39 44 39 39 44 39 39 44 39 39 44 39 39 44
39 39 44 39 39 44 39 39 43 39 39 43 39 39 43 39 39 43 39 39 43 39 39
43 39 39 43 39 39 43 39 39 43 39 39 43 39 39 43 39 39 43 38 38 43 38
38 43 38 38 43 38 38 42 38 38 42 38 38 42 38 38 42 38 38 42 38 38 42
38 38 42 38 38 42 38 38 42 38 38 42 38 38 42 38 38 42 37 37 42 37 37
41 37 37 41 37 37
58 52 52 58 52 52 58 52 52 58 52 52 58 52 52 58 52 52 58 52 52 58 52
52 58 53 53 58 53 53 59 53 53 59 53 53 59 53 53 59 53 53 59 53 53 59
53 53 59 53 53 59 53 53 59 53 53 59 53 53 59 53 53 59 53 53 59 53 53
59 53 53 59 54 54 60 54 54 60 54 54 19 188 94 20 198 99 20 201 100 20
201 100 20 199 100 20 197 99 19 194 97 19 191 95 24 192 99 36 200 109
20 179 91 17 172 86 17 167 83 16 161 80 15 155 77 15 148 74 14 142 71
13 135 67 13 127 64 12 119 60 11 111 56 10 102 51 9 93 47 8 83 42 7 73
36 6 61 31 5 48 24 3 34 17 3 26 13 3 26 13 59 53 53 59 53 53 59 53 53
59 53 53 58 53 53 58 53 53 58 52 52 58 52 52 58 52 52 58 52 52 58 52
52 58 52 52 58 52 52 58 52 52 57 52 52 57 52 52 57 52 52 57 51 51 57
51 51 57 51 51 57 51 51 57 51 51 57 51 51 56 51 51 56 51 51 56 51 51
56 50 50 56 50 50 56 50 50 56 50 50 55 50 50 55 50 50 55 50 50 55 50
50 55 49 49 55 49 49 55 49 49 55 49 49 54 49 49 54 49 49 54 49 49 54
49 49 54 48 48
72 65 65 72 65 65 72 65 65 72 65 65 72 65 65 72 65 65 72 65 65 73 65
65 73 65 65 73 66 66 73 66 66 73 66 66 73 66 66 73 66 66 73 66 66 73
66 66 73 66 66 73 66 66 73 66 66 73 66 66 74 66 66 74 66 66 74 66 66
74 66 66 74 66 66 74 66 66 74 66 66 19 191 95 20 197 98 20 199 99 20
198 99 20 196 98 19 194 97 19 191 95 20 188 95 60 225 133 78 239 150
21 178 91 17 169 84 16 163 82 16 158 79 15 152 76 15 145 73 14 138 69
13 131 66 12 124 62 12 116 58 11 108 54 10 100 50 9 90 45 8 81 40 7 70
35 6 59 29 5 46 23 3 32 16 3 26 13 3 26 13 72 65 65 72 64 64 72 64 64
71 64 64 71 64 64 71 64 64 71 64 64 71 64 64 71 64 64 71 63 63 70 63
63 70 63 63 70 63 63 70 63 63 70 63 63 70 63 63 69 62 62 69 62 62 69
62 62 69 62 62 69 62 62 69 62 62 68 62 62 68 61 61 68 61 61 68 61 61
68 61 61 67 61 61 67 61 61 67 60 60 67 60 60 67 60 60 67 60 60 66 60
60 66 60 60 66 59 59 66 59 59 66 59 59 65 59 59 65 59 59 65 59 59 65
58 58 65 58 58
85 77 77 85 77 77 85 77 77 85 77 77 85 77 77 86 77 77 86 77 77 86 77
77 86 77 77 86 77 77 86 77 77 86 77 77 86 77 77 86 78 78 86 78 78 86
78 78 86 78 78 86 78 78 86 78 78 86 78 78 86 78 78 86 78 78 86 78 78
86 78 78 86 78 78 86 78 78 86 78 78 19 190 95 19 195 97 20 196 98 19
195 97 19 193 97 19 191 95 19 187 94 19 184 93 34 196 106 30 187 100
18 171 86 17 165 83 16 160 80 15 154 77 15 148 74 14 142 71 13 135 67
13 128 64 12 121 60 11 113 57 10 105 52 10 96 48 9 87 44 8 78 39 7 67
34 6 56 28 4 44 22 3 30 15 3 26 13 3 26 13 3 26 13 83 75 75 83 74 74
83 74 74 82 74 74 82 74 74 82 74 74 82 74 74 82 73 73 81 73 73 81 73
73 81 73 73 81 73 73 81 73 73 80 72 72 80 72 72 80 72 72 80 72 72 80
72 72 79 71 71 79 71 71 79 71 71 79 71 71 78 71 71 78 70 70 78 70 70
78 70 70 78 70 70 77 70 70 77 69 69 77 69 69 77 69 69 76 69 69 76 69
69 76 68 68 76 68 68 76 68 68 75 68 68 75 68 68 75 67 67 75 67 67 74
67 67 74 67 67
97 87 87 97 87 87 97 87 87 97 88 88 97 88 88 97 88 88 97 88 88 98 88
88 98 88 88 98 88 88 98 88 88 98 88 88 98 88 88 98 88 88 98 88 88 98
88 88 98 88 88 98 88 88 98 88 88 98 88 88 98 88 88 98 88 88 98 88 88
98 88 88 97 88 88 97 88 88 17 172 86 19 188 94 19 191 96 19 192 96 19
191 96 19 189 95 19 187 93 18 183 92 18 180 90 18 176 88 17 171 86 17
166 83 16 161 81 16 156 78 15 150 75 14 144 72 14 138 69 13 131 66 12
124 62 12 117 58 11 109 55 10 101 51 9 93 46 8 84 42 7 74 37 6 64 32 5
53 27 4 41 21 3 28 14 3 26 13 3 26 13 3 26 13 93 83 83 92 83 83 92 83
83 92 83 83 92 83 83 91 82 82 91 82 82 91 82 82 91 82 82 91 81 81 90
81 81 90 81 81 90 81 81 90 81 81 89 80 80 89 80 80 89 80 80 89 80 80
88 79 79 88 79 79 88 79 79 88 79 79 87 79 79 87 78 78 87 78 78 87 78
78 86 78 78 86 77 77 86 77 77 86 77 77 85 77 77 85 77 77 85 76 76 85
76 76 84 76 76 84 76 76 84 75 75 83 75 75 83 75 75 83 75 75 83 74 74
82 74 74
108 97 97 108 97 97 108 97 97 108 97 97 108 97 97 108 97 97 108 97 97
108 97 97 108 97 97 108 97 97 108 97 97 108 97 97 108 97 97 108 97 97
108 97 97 108 97 97 108 97 97 108 97 97 108 97 97 108 97 97 107 97 97
107 97 97 107 97 97 107 96 96 107 96 96 107 96 96 17 173 86 18 184 92
19 187 94 19 188 94 19 187 93 18 185 92 18 182 91 18 179 90 18 175 88
17 171 86 17 167 83 16 162 81 16 157 79 15 152 76 15 146 73 14 140 70
13 134 67 13 127 64 12 120 60 11 113 56 11 105 53 10 97 49 9 89 44 8
80 40 7 70 35 6 60 30 5 49 25 4 37 19 3 26 13 3 26 13 3 26 13 3 26 13
101 91 91 101 91 91 100 90 90 100 90 90 100 90 90 100 90 90 99 89 89
99 89 89 99 89 89 99 89 89 98 88 88 98 88 88 98 88 88 98 88 88 97 88
88 97 87 87 97 87 87 96 87 87 96 87 87 96 86 86 96 86 86 95 86 86 95
86 86 95 85 85 94 85 85 94 85 85 94 85 85 94 84 84 93 84 84 93 84 84
93 84 84 93 83 83 92 83 83 92 83 83 92 82 82 91 82 82 91 82 82 91 82
82 91 81 81 90 81 81 90 81 81 90 81 81
117 105 105 117 105 105 117 105 105 117 105 105 117 105 105 117 105
105 117 105 105 117 105 105 117 105 105 117 105 105 117 105 105 117
105 105 117 105 105 117 105 105 117 105 105 116 105 105 116 105 105
116 105 105 116 105 105 116 104 104 116 104 104 116 104 104 116 104
104 116 104 104 115 104 104 115 104 104 17 169 85 18 180 90 18 183 91
18 183 92 18 182 91 18 180 90 18 178 89 17 175 87 17 171 85 17 167 83
16 162 81 16 158 79 15 153 76 15 147 74 14 141 71 14 135 68 13 129 65
12 123 61 12 116 58 11 109 54 10 101 50 9 93 46 8 85 42 8 76 38 7 66
33 6 56 28 5 45 23 3 33 17 3 26 13 3 26 13 3 26 13 3 26 13 108 97 97
108 97 97 108 97 97 107 97 97 107 96 96 107 96 96 106 96 96 106 96 96
106 95 95 106 95 95 105 95 95 105 94 94 105 94 94 104 94 94 104 94 94
104 93 93 104 93 93 103 93 93 103 93 93 103 92 92 102 92 92 102 92 92
102 92 92 101 91 91 101 91 91 101 91 91 101 90 90 100 90 90 100 90 90
100 90 90 99 89 89 99 89 89 99 89 89 98 89 89 98 88 88 98 88 88 98 88
88 97 88 88 97 87 87 97 87 87 96 87 87 96 86 86
125 113 113 125 113 113 125 113 113 125 112 112 125 112 112 125 112
112 125 112 112 125 112 112 125 112 112 125 112 112 124 112 112 124
112 112 124 112 112 124 112 112 124 112 112 124 111 111 124 111 111
124 111 111 123 111 111 123 111 111 123 111 111 123 111 111 123 111
111 123 110 110 123 110 110 122 110 110 16 164 82 17 174 87 18 177 89
18 178 89 18 177 89 18 175 88 17 173 86 17 170 85 17 166 83 16 162 81
16 157 79 15 153 76 15 148 74 14 142 71 14 137 68 13 131 65 12 124 62
12 118 59 11 111 56 10 104 52 10 96 48 9 88 44 8 80 40 7 71 35 6 61 31
5 51 26 4 40 20 3 29 14 3 26 13 3 26 13 3 26 13 3 26 13 114 103 103
114 103 103 114 102 102 113 102 102 113 102 102 113 102 102 112 101
101 112 101 101 112 101 101 112 100 100 111 100 100 111 100 100 111
100 100 110 99 99 110 99 99 110 99 99 109 99 99 109 98 98 109 98 98
109 98 98 108 97 97 108 97 97 108 97 97 107 97 97 107 96 96 107 96 96
106 96 96 106 95 95 106 95 95 105 95 95 105 95 95 105 94 94 105 94 94
104 94 94 104 93 93 104 93 93 103 93 93 103 93 93 103 92 92 102 92 92
102 92 92 102 92 92
132 119 119 132 119 119 132 119 119 132 119 119 132 119 119 132 118
118 131 118 118 131 118 118 131 118 118 131 118 118 131 118 118 131
118 118 131 118 118 131 118 118 130 117 117 130 117 117 130 117 117
130 117 117 130 117 117 130 117 117 129 116 116 129 116 116 129 116
116 129 116 116 129 116 116 128 116 116 16 157 78 17 168 84 17 172 86
17 172 86 17 172 86 17 170 85 17 167 84 16 164 82 16 161 80 16 157 78
15 152 76 15 148 74 14 143 71 14 137 69 13 132 66 13 126 63 12 119 60
11 113 56 11 106 53 10 99 49 9 91 46 8 83 42 7 75 37 7 66 33 6 56 28 5
46 23 4 35 18 3 26 13 3 26 13 3 26 13 3 26 13 3 26 13 120 108 108 119
107 107 119 107 107 119 107 107 118 107 107 118 106 106 118 106 106
117 106 106 117 105 105 117 105 105 117 105 105 116 105 105 116 104
104 116 104 104 115 104 104 115 103 103 115 103 103 114 103 103 114
103 103 114 102 102 113 102 102 113 102 102 113 101 101 112 101 101
112 101 101 112 101 101 111 100 100 111 100 100 111 100 100 111 99 99
110 99 99 110 99 99 110 99 99 109 98 98 109 98 98 109 98 98 108 97 97
108 97 97 108 97 97 107 97 97 107 96 96 107 96 96
138 124 124 138 124 124 138 124 124 138 124 124 138 124 124 137 124
124 137 124 124 137 123 123 137 123 123 137 123 123 137 123 123 136
123 123 136 123 123 136 122 122 136 122 122 136 122 122 136 122 122
135 122 122 135 122 122 135 121 121 135 121 121 134 121 121 134 121
121 134 121 121 134 120 120 134 120 120 15 147 73 16 161 81 17 165 83
17 166 83 17 166 83 16 164 82 16 162 81 16 159 79 16 155 78 15 151 76
15 147 73 14 142 71 14 137 69 13 132 66 13 126 63 12 120 60 11 114 57
11 107 54 10 101 50 9 93 47 9 86 43 8 78 39 7 69 35 6 60 30 5 51 25 4
41 20 3 30 15 3 26 13 3 26 13 3 26 13 3 26 13 3 26 13 124 112 112 124
112 112 124 111 111 123 111 111 123 111 111 123 110 110 122 110 110
122 110 110 122 110 110 121 109 109 121 109 109 121 109 109 120 108
108 120 108 108 120 108 108 120 108 108 119 107 107 76 151 15 78 155
16 76 152 15 72 145 14 67 134 13 58 117 12 42 84 8 117 105 105 116 105
105 116 104 104 116 104 104 115 104 104 115 104 104 115 103 103 114
103 103 114 103 103 114 102 102 113 102 102 113 102 102 113 102 102
112 101 101 112 101 101 112 101 101 112 100 100 111 100 100
143 129 129 143 129 129 143 129 129 143 128 128 142 128 128 142 128
128 142 128 128 142 128 128 142 128 128 142 127 127 141 127 127 141
127 127 141 127 127 141 127 127 141 127 127 140 126 126 140 126 126
140 126 126 140 126 126 139 126 126 139 125 125 139 125 125 139 125
125 139 125 125 138 124 124 138 124 124 138 124 124 15 153 77 16 158
79 16 159 80 16 159 80 16 158 79 16 155 78 15 152 76 15 149 74 15 145
73 14 141 70 14 136 68 13 131 66 13 126 63 12 120 60 11 115 57 11 108
54 10 102 51 9 95 47 9 88 44 8 80 40 7 72 36 6 64 32 5 55 27 4 45 22 3
35 17 3 26 13 3 26 13 3 26 13 3 26 13 3 26 13 3 26 13 128 116 116 128
115 115 128 115 115 127 115 115 127 114 114 127 114 114 126 114 114
126 114 114 126 113 113 125 113 113 125 113 113 125 112 112 125 112
112 124 112 112 124 111 111 85 171 17 89 179 18 90 180 18 89 178 18 86
173 17 83 165 17 78 155 16 71 143 14 64 127 13 53 107 11 37 73 7 120
108 108 120 108 108 119 107 107 119 107 107 119 107 107 118 107 107
118 106 106 118 106 106 117 106 106 117 105 105 117 105 105 116 105
105 116 105 105 116 104 104 116 104 104 115 104 104
147 133 133 147 133 133 147 132 132 147 132 132 147 132 132 147 132
132 146 132 132 146 132 132 146 131 131 146 131 131 145 131 131 145
131 131 145 131 131 145 130 130 145 130 130 144 130 130 144 130 130
144 130 130 144 129 129 143 129 129 143 129 129 143 129 129 143 128
128 142 128 128 142 128 128 142 128 128 142 127 127 14 143 72 15 150
75 15 152 76 15 152 76 15 151 75 15 149 74 15 146 73 14 143 71 14 139
69 13 135 67 13 130 65 13 125 63 12 120 60 11 114 57 11 108 54 10 102
51 10 96 48 9 89 44 8 82 41 7 74 37 7 66 33 6 57 29 5 48 24 4 38 19 3
28 14 3 26 13 3 26 13 3 26 13 3 26 13 3 26 13 132 119 119 132 119 119
132 118 118 131 118 118 131 118 118 131 118 118 130 117 117 130 117
117 130 117 117 129 116 116 129 116 116 129 116 116 128 116 116 128
115 115 75 149 15 91 183 18 95 191 19 97 193 19 96 192 19 94 188 19 91
182 18 87 175 17 83 165 17 77 154 15 70 141 14 62 125 12 52 104 10 38
76 8 123 111 111 123 111 111 123 110 110 122 110 110 122 110 110 122
109 109 121 109 109 121 109 109 121 109 109 120 108 108 120 108 108
120 108 108 119 107 107 119 107 107 119 107 107
151 136 136 151 136 136 151 136 136 151 136 136 150 135 135 150 135
135 150 135 135 150 135 135 149 135 135 149 134 134 149 134 134 149
134 134 149 134 134 148 133 133 148 133 133 148 133 133 148 133 133
147 133 133 147 132 132 147 132 132 147 132 132 146 132 132 146 131
131 146 131 131 145 131 131 145 131 131 145 130 130 13 131 66 14 141
70 14 144 72 14 144 72 14 143 72 14 141 71 14 139 69 14 136 68 13 132
66 13 128 64 12 123 62 12 119 59 11 113 57 11 108 54 10 102 51 10 96
48 9 89 45 8 82 41 8 75 38 7 67 34 6 59 30 5 51 25 4 41 21 3 32 16 3
26 13 3 26 13 3 26 13 3 26 13 3 26 13 3 26 13 135 122 122 135 122 122
135 121 121 135 121 121 134 121 121 134 120 120 134 120 120 133 120
120 133 120 120 133 119 119 132 119 119 132 119 119 132 118 118 131
118 118 93 186 19 98 196 20 100 200 20 100 200 20 99 197 20 97 193 19
94 187 19 90 180 18 85 171 17 80 160 16 74 148 15 67 133 13 58 116 12
47 94 9 32 64 6 126 113 113 126 113 113 125 113 113 125 113 113 125
112 112 125 112 112 124 112 112 124 111 111 124 111 111 123 111 111
123 111 111 123 110 110 122 110 110 122 110 110
154 139 139 154 139 139 154 139 139 154 138 138 153 138 138 153 138
138 153 138 138 153 138 138 153 137 137 152 137 137 152 137 137 152
137 137 152 136 136 151 136 136 151 136 136 151 136 136 151 135 135
150 135 135 150 135 135 150 135 135 149 135 135 149 134 134 149 134
134 149 134 134 148 134 134 148 133 133 148 133 133 148 133 133 13 130
65 13 134 67 14 136 68 14 135 68 13 134 67 13 131 66 13 128 64 12 125
62 12 121 60 12 116 58 11 112 56 11 106 53 10 101 50 10 95 48 9 89 44
8 82 41 8 75 38 7 68 34 6 60 30 5 52 26 4 43 22 3 34 17 3 26 13 3 26
13 3 26 13 3 26 13 3 26 13 3 26 13 3 26 13 138 124 124 138 124 124 138
124 124 137 124 124 137 123 123 137 123 123 136 123 123 136 122 122
136 122 122 135 122 122 135 122 122 135 121 121 134 121 121 90 181 18
98 195 20 101 201 20 102 203 20 101 202 20 100 200 20 98 195 20 95 189
19 91 182 18 86 173 17 81 163 16 75 151 15 69 137 14 61 121 12 51 103
10 39 79 8 22 43 4 129 116 116 128 116 116 128 115 115 128 115 115 127
115 115 127 114 114 127 114 114 126 114 114 126 114 114 126 113 113
126 113 113 125 113 113 125 112 112
157 141 141 157 141 141 157 141 141 156 141 141 156 141 141 156 140
140 156 140 140 155 140 140 155 140 140 155 139 139 155 139 139 154
139 139 154 139 139 154 139 139 154 138 138 153 138 138 153 138 138
153 138 138 153 137 137 152 137 137 152 137 137 152 137 137 151 136
136 151 136 136 151 136 136 151 136 136 150 135 135 150 135 135 12 116
58 12 124 62 13 126 63 13 126 63 13 125 63 12 123 62 12 120 60 12 117
59 11 113 57 11 109 54 10 104 52 10 99 50 9 94 47 9 88 44 8 82 41 7 75
37 7 68 34 6 61 30 5 53 26 4 44 22 4 36 18 3 26 13 3 26 13 3 26 13 3
26 13 3 26 13 3 26 13 3 26 13 141 127 127 141 127 127 140 126 126 140
126 126 140 126 126 140 126 126 139 125 125 139 125 125 26 23 23 26 23
23 26 23 23 26 23 23 137 124 124 81 162 16 94 189 19 99 199 20 101 203
20 102 204 20 101 203 20 100 199 20 97 195 19 94 189 19 91 181 18 86
173 17 81 163 16 76 151 15 69 138 14 62 123 12 53 106 11 43 85 9 29 58
6 131 118 118 131 118 118 131 118 118 130 117 117 130 117 117 130 117
117 129 116 116 129 116 116 129 116 116 128 116 116 128 115 115 128
115 115 128 115 115
159 144 144 159 143 143 159 143 143 159 143 143 158 143 143 158 142
142 158 142 142 158 142 142 157 142 142 157 141 141 157 141 141 157
141 141 156 141 141 156 141 141 156 140 140 156 140 140 155 140 140
155 140 140 155 139 139 155 139 139 154 139 139 154 139 139 154 138
138 153 138 138 153 138 138 153 138 138 153 137 137 152 137 137 152
137 137 11 110 55 12 115 58 12 116 58 12 116 58 11 114 57 11 112 56 11
109 54 11 105 53 10 101 50 10 96 48 9 91 46 9 86 43 8 80 40 7 74 37 7
67 34 6 60 30 5 53 26 4 45 22 4 36 18 3 27 14 3 26 13 3 26 13 3 26 13
3 26 13 3 26 13 3 26 13 3 26 13 26 23 23 26 23 23 26 23 23 26 23 23 26
23 23 26 23 23 26 23 23 26 23 23 26 23 23 26 23 23 26 23 23 26 23 23
26 23 23 86 173 17 95 190 19 99 198 20 101 202 20 101 202 20 100 201
20 103 202 24 97 194 20 93 187 19 90 179 18 85 171 17 80 161 16 75 150
15 69 137 14 61 123 12 53 106 11 43 87 9 31 63 6 13 27 3 133 120 120
133 120 120 133 119 119 132 119 119 132 119 119 132 119 119 132 118
118 131 118 118 131 118 118 131 118 118 130 117 117 130 117 117
162 145 145 161 145 145 161 145 145 161 145 145 161 144 144 160 144
144 160 144 144 160 144 144 159 144 144 159 143 143 159 143 143 159
143 143 158 143 143 158 142 142 158 142 142 158 142 142 157 142 142
157 141 141 162 130 16 150 120 15 133 106 13 110 88 11 80 64 8 155 140
140 155 140 140 155 139 139 154 139 139 154 139 139 154 138 138 9 91
45 10 102 51 10 105 52 11 105 53 10 104 52 10 102 51 10 100 50 10 96
48 9 92 46 9 88 44 8 83 41 8 77 39 7 71 36 7 65 33 6 58 29 5 51 26 4
44 22 4 36 18 3 27 14 3 26 13 3 26 13 3 26 13 3 26 13 3 26 13 3 26 13
3 26 13 26 23 23 26 23 23 26 23 23 26 23 23 26 23 23 26 23 23 26 23 23
26 23 23 26 23 23 26 23 23 26 23 23 26 23 23 26 23 23 26 23 23 87 174
17 94 189 19 98 196 20 99 198 20 99 199 20 99 197 20 146 243 69 100
194 24 91 183 18 88 176 18 84 167 17 79 158 16 73 147 15 67 134 13 60
121 12 52 105 10 43 86 9 32 63 6 16 32 3 135 122 122 135 122 122 135
121 121 135 121 121 134 121 121 134 121 121 134 120 120 133 120 120
133 120 120 133 120 120 133 119 119 132 119 119
163 147 147 163 147 147 163 146 146 163 146 146 162 146 146 162 146
146 162 146 146 161 145 145 161 145 145 161 145 145 161 145 145 160
144 144 160 144 144 160 144 144 160 144 144 159 143 143 191 152 19 185
148 19 174 139 17 158 127 16 140 112 14 119 96 12 95 76 10 66 53 7 26
20 3 156 141 141 156 141 141 156 140 140 156 140 140 155 140 140 8 83
42 9 91 46 9 93 47 9 93 47 9 92 46 9 89 45 9 86 43 8 82 41 8 78 39 7
73 37 7 68 34 6 62 31 6 56 28 5 49 25 4 42 21 3 34 17 3 26 13 3 26 13
3 26 13 3 26 13 3 26 13 3 26 13 3 26 13 3 26 13 26 23 23 26 23 23 26
23 23 26 23 23 26 23 23 26 23 23 26 23 23 26 23 23 26 23 23 26 23 23
26 23 23 26 23 23 26 23 23 26 23 23 26 23 23 85 171 17 92 184 18 95
191 19 97 193 19 97 193 19 96 192 19 94 188 19 92 184 18 89 178 18 85
171 17 81 162 16 76 153 15 71 142 14 65 130 13 58 116 12 50 101 10 41
83 8 30 61 6 16 32 3 137 124 124 137 123 123 137 123 123 137 123 123
136 123 123 136 122 122 136 122 122 135 122 122 135 122 122 135 121
121 135 121 121 134 121 121
165 148 148 165 148 148 164 148 148 164 148 148 164 147 147 164 147
147 163 147 147 163 147 147 163 146 146 162 146 146 162 146 146 162
146 146 162 145 145 161 145 145 161 145 145 201 161 20 197 158 20 187
149 19 173 139 17 157 126 16 139 111 14 119 95 12 96 77 10 70 56 7 39
31 4 26 20 3 158 142 142 157 142 142 157 141 141 157 141 141 157 141
141 7 71 36 8 78 39 8 80 40 8 80 40 8 78 39 8 75 38 7 72 36 7 68 34 6
63 31 6 58 29 5 52 26 5 46 23 4 39 19 3 32 16 3 26 13 3 26 13 3 26 13
3 26 13 3 26 13 3 26 13 3 26 13 3 26 13 26 23 23 26 23 23 26 23 23 26
23 23 26 23 23 26 23 23 26 23 23 26 23 23 26 23 23 26 23 23 26 23 23
26 23 23 26 23 23 26 23 23 26 23 23 26 23 23 82 164 16 89 177 18 92
184 18 93 186 19 93 187 19 93 185 19 91 182 18 89 177 18 86 171 17 82
164 16 78 156 16 73 147 15 68 136 14 62 124 12 55 111 11 48 95 10 39
77 8 28 56 6 14 28 3 13 26 3 139 125 125 139 125 125 138 125 125 138
124 124 138 124 124 138 124 124 137 124 124 137 123 123 137 123 123
136 123 123 136 122 122
166 150 150 166 149 149 166 149 149 165 149 149 165 149 149 165 148
148 165 148 148 164 148 148 164 148 148 164 147 147 164 147 147 163
147 147 163 147 147 163 146 146 202 162 20 202 162 20 194 156 19 183
146 18 169 135 17 152 122 15 134 107 13 114 91 11 92 74 9 67 54 7 38
30 4 26 20 3 159 143 143 159 143 143 158 143 143 158 142 142 158 142
142 158 142 142 6 56 28 6 63 32 7 65 33 6 65 32 6 63 31 6 60 30 6 56
28 5 51 26 5 46 23 4 40 20 3 34 17 3 27 14 3 26 13 3 26 13 3 26 13 3
26 13 3 26 13 3 26 13 3 26 13 3 26 13 26 23 23 26 23 23 26 23 23 26 23
23 26 23 23 26 23 23 26 23 23 26 23 23 26 23 23 26 23 23 26 23 23 26
23 23 26 23 23 26 23 23 26 23 23 26 23 23 26 23 23 77 153 15 84 168 17
87 175 17 89 178 18 89 178 18 88 177 18 87 174 17 85 169 17 82 164 16
78 157 16 74 149 15 70 139 14 64 129 13 58 117 12 52 103 10 44 88 9 35
70 7 24 49 5 13 26 3 13 26 3 141 127 127 140 126 126 140 126 126 140
126 126 140 126 126 139 125 125 139 125 125 139 125 125 138 125 125
138 124 124 138 124 124
167 151 151 167 150 150 167 150 150 167 150 150 166 150 150 166 149
149 166 149 149 166 149 149 165 149 149 165 148 148 165 148 148 164
148 148 164 148 148 164 148 148 202 161 20 197 158 20 188 151 19 198
163 40 161 129 16 145 116 14 127 101 13 107 86 11 85 68 8 60 48 6 33
26 3 26 20 3 26 20 3 160 144 144 160 144 144 159 143 143 159 143 143
159 143 143 159 143 143 158 142 142 4 45 22 5 48 24 5 47 24 5 45 23 4
42 21 4 38 19 3 33 16 3 27 14 3 26 13 3 26 13 3 26 13 3 26 13 3 26 13
3 26 13 3 26 13 3 26 13 3 26 13 26 23 23 26 23 23 26 23 23 26 23 23 26
23 23 26 23 23 26 23 23 26 23 23 26 23 23 26 23 23 26 23 23 26 23 23
26 23 23 26 23 23 26 23 23 26 23 23 26 23 23 26 23 23 69 139 14 78 156
16 82 164 16 84 168 17 84 169 17 84 167 17 82 164 16 80 160 16 77 154
15 74 148 15 70 140 14 65 130 13 60 120 12 54 108 11 47 95 9 40 79 8
31 61 6 20 39 4 13 26 3 142 128 128 142 128 128 142 128 128 142 127
127 141 127 127 141 127 127 141 127 127 141 126 126 140 126 126 140
126 126 140 126 126 139 125 125
168 152 152 168 151 151 168 151 151 168 151 151 167 151 151 167 150
150 167 150 150 167 150 150 166 150 150 166 149 149 166 149 149 166
149 149 165 149 149 190 152 19 195 156 20 189 151 19 179 144 18 167
133 17 152 121 15 135 108 14 117 94 12 97 78 10 76 60 8 51 41 5 26 20
3 26 20 3 26 20 3 161 145 145 161 145 145 161 145 145 160 144 144 160
144 144 160 144 144 159 143 143 159 143 143 3 26 13 3 26 13 3 26 13 3
26 13 3 26 13 3 26 13 3 26 13 3 26 13 3 26 13 3 26 13 3 26 13 3 26 13
3 26 13 3 26 13 26 23 23 26 23 23 26 23 23 26 23 23 26 23 23 26 23 23
26 23 23 26 23 23 26 23 23 26 23 23 26 23 23 26 23 23 26 23 23 26 23
23 26 23 23 26 23 23 26 23 23 26 23 23 26 23 23 149 135 135 59 118 12
70 141 14 75 151 15 78 155 16 78 157 16 78 156 16 77 154 15 75 149 15
72 144 14 69 137 14 65 129 13 60 120 12 55 110 11 49 98 10 42 84 8 34
68 7 25 50 5 14 27 3 13 26 3 144 130 130 144 129 129 143 129 129 143
129 129 143 129 129 143 128 128 142 128 128 142 128 128 142 128 128
141 127 127 141 127 127 141 127 127
169 152 152 169 152 152 169 152 152 169 152 152 168 151 151 168 151
151 168 151 151 168 151 151 167 151 151 167 150 150 167 150 150 166
150 150 166 150 150 183 146 18 185 148 18 178 143 18 168 134 17 155
124 16 141 112 14 124 99 12 106 85 11 86 69 9 64 51 6 40 32 4 26 20 3
26 20 3 26 20 3 162 146 146 162 146 146 162 145 145 161 145 145 161
145 145 161 145 145 160 144 144 160 144 144 160 144 144 160 144 144 26
23 23 3 26 13 3 26 13 3 26 13 3 26 13 3 26 13 3 26 13 3 26 13 3 26 13
26 23 23 26 23 23 26 23 23 26 23 23 26 23 23 26 23 23 26 23 23 26 23
23 26 23 23 26 23 23 26 23 23 26 23 23 26 23 23 26 23 23 26 23 23 26
23 23 26 23 23 26 23 23 152 137 137 152 136 136 151 136 136 151 136
136 151 136 136 150 135 135 61 121 12 67 135 13 70 141 14 72 143 14 72
143 14 70 141 14 69 137 14 66 132 13 63 125 13 59 118 12 54 108 11 49
98 10 43 86 9 36 72 7 28 56 6 18 36 4 13 26 3 13 26 3 26 23 23 26 23
23 26 23 23 26 23 23 26 23 23 26 23 23 26 23 23 143 129 129 143 129
129 143 129 129 143 128 128 142 128 128
170 153 153 170 153 153 170 153 153 169 152 152 169 152 152 169 152
152 169 152 152 168 152 152 168 151 151 168 151 151 168 151 151 167
151 151 167 150 150 169 135 17 172 137 17 165 132 17 155 124 16 142
114 14 128 102 13 111 89 11 93 74 9 73 58 7 51 41 5 26 21 3 26 20 3 26
20 3 26 20 3 163 147 147 163 146 146 162 146 146 162 146 146 162 146
146 162 145 145 161 145 145 161 145 145 161 145 145 161 145 145 160
144 144 160 144 144 26 23 23 26 23 23 26 23 23 26 23 23 26 23 23 26 23
23 26 23 23 26 23 23 26 23 23 26 23 23 26 23 23 26 23 23 26 23 23 26
23 23 26 23 23 26 23 23 26 23 23 26 23 23 26 23 23 155 139 139 154 139
139 154 139 139 154 138 138 153 138 138 153 138 138 153 138 138 153
137 137 152 137 137 152 137 137 152 137 137 152 136 136 46 92 9 57 114
11 61 123 12 63 127 13 64 128 13 63 126 13 61 123 12 59 118 12 56 112
11 52 104 10 47 95 9 42 84 8 36 72 7 29 57 6 20 40 4 13 26 3 13 26 3
26 23 23 26 23 23 26 23 23 26 23 23 26 23 23 26 23 23 26 23 23 26 23
23 26 23 23 26 23 23 144 130 130 144 129 129 144 129 129
171 154 154 171 154 154 170 153 153 170 153 153 170 153 153 170 153
153 169 152 152 169 152 152 169 152 152 169 152 152 168 151 151 168
151 151 168 151 151 150 120 15 156 125 16 150 120 15 140 112 14 127
102 13 113 90 11 96 77 10 78 62 8 58 46 6 35 28 4 26 20 3 26 20 3 26
20 3 164 148 148 164 147 147 164 147 147 163 147 147 163 147 147 26 23
23 26 23 23 26 23 23 26 23 23 162 146 146 161 145 145 161 145 145 161
145 145 161 145 145 160 144 144 160 144 144 160 144 144 160 144 144
159 143 143 159 143 143 159 143 143 158 143 143 158 142 142 158 142
142 158 142 142 157 142 142 157 141 141 157 141 141 157 141 141 156
141 141 156 140 140 156 140 140 156 140 140 155 140 140 155 139 139
155 139 139 154 139 139 154 139 139 154 139 139 154 138 138 153 138
138 153 138 138 153 138 138 153 137 137 152 137 137 42 84 8 50 100 10
54 107 11 55 109 11 54 109 11 53 106 11 51 102 10 48 96 10 44 88 9 39
79 8 34 68 7 27 55 5 20 39 4 13 26 3 13 26 3 13 26 3 26 23 23 26 23 23
26 23 23 26 23 23 26 23 23 26 23 23 26 23 23 26 23 23 26 23 23 26 23
23 26 23 23 145 131 131 145 130 130
172 154 154 171 154 154 171 154 154 171 154 154 171 153 153 170 153
153 170 153 153 170 153 153 170 153 153 169 152 152 169 152 152 169
152 152 168 152 152 168 151 151 136 108 14 132 105 13 123 98 12 110 88
11 96 77 10 79 63 8 61 49 6 40 32 4 26 20 3 26 20 3 26 20 3 26 20 3 26
23 23 26 23 23 26 23 23 26 23 23 26 23 23 26 23 23 26 23 23 26 23 23
26 23 23 26 23 23 26 23 23 162 146 146 162 146 146 161 145 145 161 145
145 161 145 145 161 145 145 160 144 144 160 144 144 160 144 144 160
144 144 159 143 143 159 143 143 159 143 143 159 143 143 158 142 142
158 142 142 158 142 142 157 142 142 157 141 141 157 141 141 157 141
141 156 141 141 156 141 141 156 140 140 156 140 140 155 140 140 155
140 140 155 139 139 155 139 139 154 139 139 154 139 139 154 138 138
154 138 138 153 138 138 153 138 138 33 67 7 41 81 8 43 87 9 44 88 9 43
86 9 41 82 8 38 76 8 34 69 7 30 59 6 24 48 5 17 34 3 13 26 3 13 26 3
13 26 3 26 23 23 26 23 23 26 23 23 26 23 23 26 23 23 26 23 23 26 23 23
26 23 23 26 23 23 26 23 23 26 23 23 26 23 23 146 132 132 146 131 131
172 155 155 172 155 155 172 154 154 171 154 154 171 154 154 171 154
154 171 154 154 170 153 153 170 153 153 170 153 153 170 153 153 169
152 152 169 152 152 169 152 152 107 86 11 109 88 11 102 82 10 90 72 9
76 61 8 60 48 6 41 33 4 26 20 3 26 20 3 26 20 3 26 20 3 26 23 23 26 23
23 26 23 23 26 23 23 26 23 23 26 23 23 26 23 23 26 23 23 26 23 23 26
23 23 26 23 23 163 147 147 163 146 146 162 146 146 162 146 146 162 146
146 162 145 145 161 145 145 161 145 145 161 145 145 161 145 145 160
144 144 160 144 144 160 144 144 160 144 144 159 143 143 159 143 143
159 143 143 159 143 143 158 142 142 158 142 142 158 142 142 158 142
142 157 142 142 157 141 141 157 141 141 156 141 141 156 141 141 156
140 140 156 140 140 155 140 140 155 140 140 155 139 139 155 139 139
154 139 139 154 139 139 154 139 139 154 138 138 18 36 4 27 54 5 30 60
6 30 61 6 29 58 6 26 53 5 23 45 5 18 35 4 13 26 3 13 26 3 13 26 3 13
26 3 26 23 23 26 23 23 26 23 23 26 23 23 26 23 23 26 23 23 26 23 23 26
23 23 26 23 23 26 23 23 26 23 23 148 133 133 147 133 133 147 132 132
147 132 132
173 155 155 172 155 155 172 155 155 172 155 155 172 155 155 171 154
154 171 154 154 171 154 154 171 154 154 170 153 153 170 153 153 170
153 153 170 153 153 169 152 152 169 152 152 78 62 8 76 61 8 66 53 7 53
42 5 36 29 4 26 20 3 26 20 3 26 20 3 26 20 3 26 23 23 26 23 23 26 23
23 26 23 23 26 23 23 26 23 23 26 23 23 26 23 23 26 23 23 26 23 23 164
148 148 164 147 147 164 147 147 163 147 147 163 147 147 163 147 147
163 146 146 162 146 146 162 146 146 162 146 146 162 145 145 161 145
145 161 145 145 161 145 145 161 145 145 160 144 144 160 144 144 160
144 144 160 144 144 159 143 143 159 143 143 159 143 143 159 143 143
158 142 142 158 142 142 158 142 142 158 142 142 157 142 142 157 141
141 157 141 141 157 141 141 156 141 141 156 140 140 156 140 140 156
140 140 155 140 140 155 140 140 155 139 139 155 139 139 154 139 139 26
23 23 13 26 3 13 26 3 13 26 3 13 26 3 13 26 3 13 26 3 13 26 3 13 26 3
26 23 23 26 23 23 26 23 23 26 23 23 26 23 23 26 23 23 26 23 23 26 23
23 26 23 23 26 23 23 26 23 23 149 134 134 149 134 134 149 134 134 148
134 134 148 133 133 148 133 133
173 156 156 173 156 156 173 155 155 172 155 155 172 155 155 172 155
155 172 155 155 171 154 154 171 154 154 171 154 154 171 154 154 170
153 153 170 153 153 170 153 153 170 153 153 169 153 153 169 152 152 32
26 3 26 20 3 26 20 3 26 20 3 26 20 3 26 20 3 26 23 23 26 23 23 26 23
23 26 23 23 26 23 23 26 23 23 26 23 23 26 23 23 165 149 149 165 149
149 165 148 148 165 148 148 164 148 148 164 148 148 164 148 148 164
147 147 163 147 147 163 147 147 163 147 147 163 146 146 163 146 146
162 146 146 162 146 146 162 146 146 162 145 145 161 145 145 161 145
145 161 145 145 161 144 144 160 144 144 160 144 144 160 144 144 160
144 144 159 143 143 159 143 143 159 143 143 159 143 143 158 142 142
158 142 142 158 142 142 158 142 142 157 142 142 157 141 141 157 141
141 157 141 141 156 141 141 156 140 140 156 140 140 156 140 140 155
140 140 155 140 140 155 139 139 155 139 139 154 139 139 26 23 23 26 23
23 26 23 23 26 23 23 26 23 23 26 23 23 26 23 23 26 23 23 26 23 23 26
23 23 26 23 23 26 23 23 26 23 23 151 136 136 151 136 136 150 135 135
150 135 135 150 135 135 150 135 135 150 135 135 149 134 134 149 134
134 149 134 134
174 156 156 173 156 156 173 156 156 173 156 156 173 155 155 172 155
155 172 155 155 172 155 155 172 154 154 171 154 154 171 154 154 171
154 154 171 154 154 170 153 153 170 153 153 170 153 153 170 153 153
169 153 153 26 23 23 26 23 23 26 23 23 26 23 23 26 23 23 26 23 23 26
23 23 26 23 23 167 151 151 167 150 150 167 150 150 167 150 150 166 150
150 166 149 149 166 149 149 166 149 149 165 149 149 165 149 149 165
148 148 165 148 148 164 148 148 164 148 148 164 147 147 164 147 147
163 147 147 163 147 147 163 147 147 163 146 146 162 146 146 162 146
146 162 146 146 162 145 145 161 145 145 161 145 145 161 145 145 161
145 145 160 144 144 160 144 144 160 144 144 160 144 144 159 144 144
159 143 143 159 143 143 159 143 143 158 143 143 158 142 142 158 142
142 158 142 142 158 142 142 157 142 142 157 141 141 157 141 141 157
141 141 156 141 141 156 140 140 156 140 140 156 140 140 155 140 140
155 140 140 155 139 139 155 139 139 154 139 139 154 139 139 154 139
139 154 138 138 153 138 138 153 138 138 153 138 138 153 137 137 153
137 137 152 137 137 152 137 137 152 137 137 152 136 136 151 136 136
151 136 136 151 136 136 151 136 136 150 135 135 150 135 135 150 135
135 150 135 135
174 157 157 174 156 156 173 156 156 173 156 156 173 156 156 173 155
155 173 155 155 172 155 155 172 155 155 172 155 155 172 154 154 171
154 154 171 154 154 171 154 154 171 154 154 170 153 153 170 153 153
170 153 153 170 153 153 169 152 152 169 152 152 169 152 152 169 152
152 168 152 152 168 151 151 168 151 151 168 151 151 168 151 151 167
151 151 167 150 150 167 150 150 167 150 150 166 150 150 166 149 149
166 149 149 166 149 149 165 149 149 165 149 149 165 148 148 165 148
148 164 148 148 164 148 148 164 148 148 164 147 147 163 147 147 163
147 147 163 147 147 163 146 146 162 146 146 162 146 146 162 146 146
162 146 146 162 145 145 161 145 145 161 145 145 161 145 145 161 145
145 160 144 144 160 144 144 160 144 144 160 144 144 159 143 143 159
143 143 159 143 143 159 143 143 158 143 143 158 142 142 158 142 142
158 142 142 157 142 142 157 142 142 157 141 141 157 141 141 157 141
141 156 141 141 156 140 140 156 140 140 156 140 140 155 140 140 155
140 140 155 139 139 155 139 139 154 139 139 154 139 139 154 139 139
154 138 138 154 138 138 153 138 138 153 138 138 153 138 138 153 137
137 152 137 137 152 137 137 152 137 137 152 137 137 151 136 136 151
136 136 151 136 136 151 136 136 151 135 135
174 157 157 174 157 157 174 156 156 174 156 156 173 156 156 173 156
156 173 156 156 173 155 155 172 155 155 172 155 155 172 155 155 172
155 155 171 154 154 171 154 154 171 154 154 171 154 154 171 154 154
170 153 153 170 153 153 170 153 153 170 153 153 169 152 152 169 152
152 169 152 152 169 152 152 168 152 152 168 151 151 168 151 151 168
151 151 168 151 151 167 151 151 167 150 150 167 150 150 167 150 150
166 150 150 166 149 149 166 149 149 166 149 149 165 149 149 165 149
149 165 148 148 165 148 148 164 148 148 164 148 148 164 148 148 164
147 147 163 147 147 163 147 147 163 147 147 163 147 147 163 146 146
162 146 146 162 146 146 162 146 146 162 145 145 161 145 145 161 145
145 161 145 145 161 145 145 160 144 144 160 144 144 160 144 144 160
144 144 160 144 144 159 143 143 159 143 143 159 143 143 159 143 143
158 143 143 158 142 142 158 142 142 158 142 142 157 142 142 157 141
141 157 141 141 157 141 141 157 141 141 156 141 141 156 140 140 156
140 140 156 140 140 155 140 140 155 140 140 155 139 139 155 139 139
154 139 139 154 139 139 154 139 139 154 138 138 154 138 138 153 138
138 153 138 138 153 138 138 153 137 137 152 137 137 152 137 137 152
137 137 152 137 137 152 136 136 151 136 136
175 157 157 174 157 157 174 157 157 174 157 157 174 156 156 173 156
156 173 156 156 173 156 156 173 156 156 173 155 155 172 155 155 172
155 155 172 155 155 172 154 154 171 154 154 171 154 154 171 154 154
171 154 154 170 153 153 170 153 153 170 153 153 170 153 153 170 153
153 169 152 152 169 152 152 169 152 152 169 152 152 168 152 152 168
151 151 168 151 151 168 151 151 167 151 151 167 151 151 167 150 150
167 150 150 167 150 150 166 150 150 166 149 149 166 149 149 166 149
149 165 149 149 165 149 149 165 148 148 165 148 148 164 148 148 164
148 148 164 148 148 164 147 147 164 147 147 163 147 147 163 147 147
163 147 147 163 146 146 162 146 146 162 146 146 162 146 146 162 146
146 161 145 145 161 145 145 161 145 145 161 145 145 161 145 145 160
144 144 160 144 144 160 144 144 160 144 144 159 143 143 159 143 143
159 143 143 159 143 143 159 143 143 158 142 142 158 142 142 158 142
142 158 142 142 157 142 142 157 141 141 157 141 141 157 141 141 156
141 141 156 141 141 156 140 140 156 140 140 156 140 140 155 140 140
155 140 140 155 139 139 155 139 139 154 139 139 154 139 139 154 139
139 154 138 138 154 138 138 153 138 138 153 138 138 153 138 138 153
137 137 153 137 137 152 137 137 152 137 137
